<svg width="1440" height="900" viewBox="0 0 1440 900" fill="none" xmlns="http://www.w3.org/2000/svg">
<rect y="716" width="1450" height="184" fill="#D1BFEC"/>
<rect y="698" width="1450" height="18" fill="#E1D5F2"/>
<path d="M1457.92 697.403C1457.92 698.015 1131.13 698.389 728.756 698.241C326.463 698.093 0 697.482 0 696.871C0 696.259 326.463 695.884 728.838 696.032C1131.21 696.18 1457.92 696.792 1457.92 697.403Z" fill="#AD91FF"/>
<path d="M1355.94 714.78C1355.94 715.391 1074.95 715.884 728.919 715.884C382.889 715.884 102.136 715.391 102.136 714.78C102.136 714.168 382.889 713.675 728.919 713.675C1074.95 713.675 1355.94 714.168 1355.94 714.78Z" fill="#AD91FF"/>
<rect width="1450" height="696" fill="#FEE78F"/>
<g style="mix-blend-mode:multiply">
<path d="M79 8.44316C71.4035 2.13489 63.6767 -0.743255 56 0.163558V692.417C63.1656 695.926 70.9826 697.188 79 694.704V8.44316Z" fill="#FFF4D7"/>
</g>
<g style="mix-blend-mode:multiply">
<path d="M179 8.44316C171.403 2.13489 163.677 -0.743255 156 0.163558V692.417C163.166 695.926 170.983 697.188 179 694.704V8.44316Z" fill="#FFF4D7"/>
</g>
<g style="mix-blend-mode:multiply">
<path d="M279 8.44316C271.403 2.13489 263.677 -0.743255 256 0.163558V692.417C263.166 695.926 270.983 697.188 279 694.704V8.44316Z" fill="#FFF4D7"/>
</g>
<g style="mix-blend-mode:multiply">
<path d="M379 8.44316C371.403 2.13489 363.677 -0.743255 356 0.163558V692.417C363.166 695.926 370.983 697.188 379 694.704V8.44316Z" fill="#FFF4D7"/>
</g>
<g style="mix-blend-mode:multiply">
<path d="M479 8.44316C471.403 2.13489 463.677 -0.743255 456 0.163558V692.417C463.166 695.926 470.983 697.188 479 694.704V8.44316Z" fill="#FFF4D7"/>
</g>
<g style="mix-blend-mode:multiply">
<path d="M579 8.44316C571.403 2.13489 563.677 -0.743255 556 0.163558V692.417C563.166 695.926 570.983 697.188 579 694.704V8.44316Z" fill="#FFF4D7"/>
</g>
<g style="mix-blend-mode:multiply">
<path d="M679 8.44316C671.403 2.13489 663.677 -0.743255 656 0.163558V692.417C663.166 695.926 670.983 697.188 679 694.704V8.44316Z" fill="#FFF4D7"/>
</g>
<g style="mix-blend-mode:multiply">
<path d="M779 8.44316C771.403 2.13489 763.677 -0.743255 756 0.163558V692.417C763.166 695.926 770.983 697.188 779 694.704V8.44316Z" fill="#FFF4D7"/>
</g>
<g style="mix-blend-mode:multiply">
<path d="M879 8.44316C871.403 2.13489 863.677 -0.743255 856 0.163558V692.417C863.166 695.926 870.983 697.188 879 694.704V8.44316Z" fill="#FFF4D7"/>
</g>
<g style="mix-blend-mode:multiply">
<path d="M979 8.44316C971.403 2.13489 963.677 -0.743255 956 0.163558V692.417C963.166 695.926 970.983 697.188 979 694.704V8.44316Z" fill="#FFF4D7"/>
</g>
<g style="mix-blend-mode:multiply">
<path d="M1079 8.44316C1071.4 2.13489 1063.68 -0.743255 1056 0.163558V692.417C1063.17 695.926 1070.98 697.188 1079 694.704V8.44316Z" fill="#FFF4D7"/>
</g>
<g style="mix-blend-mode:multiply">
<path d="M1179 8.44316C1171.4 2.13489 1163.68 -0.743255 1156 0.163558V692.417C1163.17 695.926 1170.98 697.188 1179 694.704V8.44316Z" fill="#FFF4D7"/>
</g>
<g style="mix-blend-mode:multiply">
<path d="M1279 8.44316C1271.4 2.13489 1263.68 -0.743255 1256 0.163558V692.417C1263.17 695.926 1270.98 697.188 1279 694.704V8.44316Z" fill="#FFF4D7"/>
</g>
<g style="mix-blend-mode:multiply">
<path d="M1379 8.44316C1371.4 2.13489 1363.68 -0.743255 1356 0.163558V692.417C1363.17 695.926 1370.98 697.188 1379 694.704V8.44316Z" fill="#FFF4D7"/>
</g>
<g opacity="0.8">
<path d="M876.398 799.867C876.253 800.342 876.352 800.401 876.696 800.044C878.53 798.148 880.568 795.571 883.131 794.633C891.462 791.588 889.393 802.533 887.373 805.799C885.775 808.385 883.314 810.202 880.862 811.939C880.286 812.346 879.315 813.326 877.947 814.879C872.74 820.785 868.775 825.987 859.674 823.72C857.013 823.053 854.552 819.795 852.785 817.523C850.137 814.119 846.039 811.095 842.666 808.23C838.768 804.928 838.67 796.574 841.198 792.525C844.326 787.521 849.813 788.971 852.193 793.674C852.547 794.37 852.743 794.33 852.781 793.555C852.928 790.752 853.76 788.144 855.718 786.018C857.997 783.542 861.027 783.065 863.092 786.172C864.401 788.144 864.986 790.324 864.846 792.715C864.822 793.101 864.819 793.31 864.837 793.343C865.166 793.994 865.433 793.969 865.638 793.267C866.733 789.501 870.631 784.687 875.152 786.009C877.328 786.645 878.463 788.542 878.623 790.805C878.877 794.293 877.324 796.848 876.398 799.867Z" fill="#FFEB99"/>
<path d="M1097.72 799.598C1097.81 796.605 1098.63 789.144 1102.92 788.998C1107.88 788.826 1110.05 796.151 1109.88 799.814C1109.83 800.775 1110.03 800.828 1110.47 799.974C1111.38 798.205 1112.91 796.746 1115.06 795.597C1117.9 794.072 1120.81 797.233 1121.92 799.518C1123.65 803.068 1123.3 809.694 1120.9 812.899C1120.36 813.617 1119.27 814.589 1117.62 815.812C1115.35 817.489 1113.08 819.155 1110.81 820.812C1107.85 822.964 1106.23 826.32 1103.3 828.534C1102.76 828.944 1102.16 829.227 1101.51 829.383C1097.3 830.373 1092.59 829.273 1089.37 826.399C1088.78 825.875 1087.85 824.879 1086.57 823.411C1084.69 821.249 1083.71 818.641 1081.51 817.085C1076.39 813.46 1072.99 809.296 1073.34 802.551C1073.41 801.194 1073.5 800.004 1074.91 799.452C1078.81 797.931 1083.95 804.544 1085.95 806.644C1085.99 806.687 1086.06 806.685 1086.1 806.641C1086.13 806.611 1086.14 806.568 1086.13 806.529C1084.29 801.79 1080.21 793.847 1087.34 790.965C1089.12 790.246 1090.85 790.507 1092.54 791.748C1095.36 793.825 1096.19 796.491 1097.22 799.669C1097.52 800.609 1097.69 800.586 1097.72 799.599V799.598Z" fill="#CBA7D1"/>
<path d="M1037.36 818.424C1036.88 817.425 1036.38 816.318 1035.87 815.104C1034.64 812.174 1034.97 807.74 1037.52 805.663C1039.26 804.257 1041.97 804.562 1043.8 805.787C1046.26 807.436 1047.31 810.247 1048.3 812.917C1048.33 812.994 1048.38 813.032 1048.46 813.032C1048.5 813.035 1048.54 813.029 1048.58 813.014C1048.6 813.006 1048.62 812.986 1048.62 812.957C1048.78 809.429 1049.46 802.251 1054.91 803.162C1059.03 803.847 1060.56 808.992 1060.7 812.497C1060.71 812.655 1060.84 812.778 1061 812.771C1061.1 812.767 1061.19 812.714 1061.24 812.63C1062.49 810.459 1064.9 806.896 1067.98 808.589C1071.36 810.442 1072.85 815.45 1072.67 818.959C1072.5 822.341 1070.69 825.095 1068.17 827.27C1064.66 830.307 1060.35 833.574 1057.77 836.716C1056.3 838.502 1054.88 840.677 1052.91 841.711C1051.34 842.536 1049.78 842.876 1048.22 842.728C1040.03 841.968 1037.81 837.163 1033.34 831.465C1031.89 829.635 1029.82 828.101 1028.33 826.572C1025.59 823.756 1023.05 817.92 1025.2 814.124C1026.03 812.661 1029.05 813.041 1030.29 813.518C1030.94 813.769 1031.9 814.418 1033.17 815.468C1034.46 816.538 1035.77 817.596 1037.08 818.642C1037.49 818.972 1037.59 818.9 1037.36 818.425L1037.36 818.424Z" fill="#ECA9D9"/>
<path d="M973.443 829.816C973.547 829.835 973.647 829.767 973.667 829.664C973.674 829.629 973.67 829.593 973.657 829.559C972.019 825.382 970.199 819.645 974.631 816.369C979.932 812.457 984.599 819.631 985.667 823.809C985.694 823.921 985.736 823.994 985.792 824.03C985.83 824.054 985.874 824.067 985.921 824.07C986.022 824.076 986.077 824.028 986.086 823.928C986.384 820.67 987.35 813.129 992.356 813.717C996.477 814.208 998.302 820.335 998.324 823.636C998.333 824.7 998.602 824.77 999.13 823.844C1000.73 821.033 1003.54 818.858 1006.86 820.63C1008.7 821.612 1009.86 823.283 1010.34 825.643C1012.91 838.122 1004.25 839.643 997.942 846.251C995.738 848.556 993.528 850.853 991.311 853.143C988.873 855.667 981.717 854.018 978.62 852.02C977.581 851.355 976.433 850.248 975.175 848.7C973.757 846.953 972.342 845.207 970.93 843.462C968.985 841.053 966.016 839.669 964.21 837.22C962.178 834.47 961.168 831.311 961.183 827.743C961.192 826.138 961.566 824.233 963.515 824.229C967.396 824.215 970.129 826.819 972.674 829.365C972.926 829.616 973.183 829.766 973.444 829.816L973.443 829.816Z" fill="#FFEB99"/>
<path d="M849.195 903H846.921C847.343 896.935 848.75 890.946 849.911 884.987C850.045 884.306 850.119 883.736 850.134 883.276C850.136 883.125 850.061 882.983 849.934 882.9C849.217 882.432 848.656 882.047 848.118 881.349C844.742 877.008 841.17 872.832 837.402 868.821C836.299 867.643 835.515 866.361 835.052 864.976C834.892 864.493 835.112 863.967 835.569 863.742C840.317 861.382 846.413 868.371 848.567 871.766C849.8 873.711 849.382 875.532 849.951 877.349C850.319 878.522 850.634 878.507 850.895 877.305C852.297 870.82 853.196 863.924 854.344 857.859C854.522 856.916 854.614 856.062 854.62 855.295C854.62 855.148 854.55 855.01 854.433 854.924C852.67 853.63 850.934 852.325 849.221 851.007C847.811 849.92 846.952 849.305 845.986 847.78C843.903 844.487 841.309 841.742 842.724 837.693C843.154 836.462 844.021 836.144 845.323 836.743C846.711 837.384 847.766 839.78 848.563 841.088C849.982 843.418 852.061 846.022 853.111 848.148C853.657 849.256 854.212 850.234 854.776 851.083C854.995 851.413 855.116 851.381 855.136 850.986L856.427 825.816C856.453 825.272 856.919 824.853 857.466 824.879C857.535 824.882 857.602 824.892 857.668 824.91L858.047 825.007C858.895 825.225 859.335 825.769 859.368 826.638C859.546 831.156 858.977 836.257 858.839 840.217C858.711 843.783 858.45 847.348 858.055 850.91C858.031 851.116 858.122 851.239 858.327 851.277C858.496 851.31 858.671 851.246 858.852 851.087C860.208 849.908 861.497 848.664 862.719 847.356C864.7 845.243 866.449 842.63 868.149 840.15C869.301 838.466 871.847 835.915 873.943 835.588C874.069 835.566 874.189 835.65 874.211 835.775C874.216 835.803 874.216 835.831 874.211 835.858C873.472 839.854 872.339 843.754 870.811 847.558C868.955 852.191 864.082 853.752 859.014 854.976C858.751 855.042 858.079 855.073 857.679 855.219C857.528 855.275 857.445 855.383 857.43 855.542C856.611 863.879 855.34 872.145 853.616 880.341C853.494 880.927 853.442 881.479 853.46 881.994C853.466 882.15 853.598 882.273 853.753 882.267C853.815 882.265 853.876 882.243 853.923 882.202C854.771 881.501 855.549 880.761 856.255 879.983C860.325 875.509 864.36 871.003 868.359 866.465C869.805 864.83 873.023 862.827 875.297 863.733C875.568 863.843 875.698 864.149 875.588 864.416C875.584 864.427 875.578 864.439 875.573 864.449C871.817 872 865.623 877.348 859.432 882.807C856.927 885.022 855.08 885.676 852.654 887.042C852.398 887.186 852.217 887.433 852.16 887.719L849.197 903H849.195Z" fill="#492A70"/>
<path d="M1108.13 903H1105.21L1103.92 892.559C1103.88 892.259 1103.71 891.991 1103.45 891.834C1101.71 890.803 1100.02 889.574 1098.4 888.147C1094.12 884.399 1090.96 881.384 1088.92 879.103C1086.18 876.044 1083.29 872.361 1081.94 868.423C1081.86 868.187 1081.98 867.932 1082.22 867.854C1082.25 867.845 1082.27 867.839 1082.3 867.836C1084.89 867.464 1087.01 868.322 1088.65 870.408C1093.25 876.239 1097.69 881.928 1102.99 887.175C1103.07 887.259 1103.2 887.26 1103.29 887.176C1103.32 887.15 1103.34 887.117 1103.35 887.082C1103.37 887.003 1103.37 886.894 1103.35 886.755C1101.78 876.389 1100.85 869.325 1100.61 860.435C1100.6 860.129 1100.44 859.954 1100.13 859.909C1096.89 859.454 1091.79 857.584 1089.61 854.865C1088.99 854.079 1088.39 852.821 1087.82 851.095C1086.89 848.303 1086.02 845.495 1085.2 842.669C1084.98 841.876 1084.7 841.117 1084.38 840.392C1084.33 840.276 1084.39 840.14 1084.51 840.089C1084.52 840.082 1084.54 840.077 1084.55 840.074C1087.92 839.473 1090.38 843.814 1091.75 846.214C1093.43 849.196 1095.43 851.968 1097.74 854.529C1098.36 855.225 1099.07 855.796 1099.87 856.245C1100.03 856.333 1100.24 856.276 1100.33 856.119C1100.36 856.064 1100.37 856.002 1100.37 855.94C1100.26 853.964 1100.02 851.952 1100.03 850.02C1100.04 845.099 1100.05 840.177 1100.05 835.256C1100.05 833.581 1100.24 831.132 1101.55 829.912C1101.87 829.617 1102.37 829.632 1102.66 829.945C1102.74 830.033 1102.81 830.137 1102.84 830.252C1103.04 830.898 1103.16 831.645 1103.2 832.493C1103.5 839.832 1103.29 846.413 1103.24 854.485C1103.23 855.08 1103.27 855.593 1103.35 856.024C1103.4 856.245 1103.5 856.278 1103.67 856.125C1104.11 855.725 1104.48 855.278 1104.77 854.786C1106.71 851.541 1108.68 848.31 1110.67 845.092C1111.4 843.903 1114.54 840.004 1115.94 841.896C1118.66 845.548 1114.23 851.011 1112.17 853.813C1111.8 854.319 1111.34 854.756 1110.82 855.104C1108.48 856.665 1106.22 858.481 1103.62 859.759C1103.42 859.855 1103.31 860.065 1103.33 860.285C1103.56 862.372 1103.66 864.542 1103.91 866.545C1104.36 870.152 1104.79 873.622 1104.91 877.361C1104.99 879.766 1105.24 881.892 1106.63 883.475C1106.73 883.578 1106.89 883.586 1106.99 883.493C1107.04 883.452 1107.07 883.395 1107.07 883.333C1107.23 881.583 1107.24 879.682 1108.14 878.077C1109.97 874.777 1112.46 872.078 1115.6 869.979C1117.6 868.644 1120.73 867.786 1122.46 869.881C1122.76 870.25 1122.72 870.702 1122.34 871.239C1120.94 873.206 1119.59 874.886 1117.76 876.733C1115.01 879.507 1112.42 882.428 1110.01 885.5C1109.08 886.678 1108.01 887.555 1106.79 888.13C1106.49 888.269 1106.31 888.588 1106.36 888.917L1108.13 903H1108.13Z" fill="#492A70"/>
<path d="M928.631 872.818C927.587 872.426 926.421 872.292 925.133 872.415C923.154 871.843 921.395 870.522 919.855 868.45C912.984 859.207 912.174 848.673 911.844 837.348C911.804 836.022 911.395 831.31 914.19 832.22C916.499 832.972 917.932 834.767 919.29 836.579C919.928 837.43 920.233 837.326 920.206 836.265C920.175 835.045 920.024 832.945 921.052 831.849C921.147 831.749 921.273 831.684 921.408 831.663C923.62 831.354 926.757 835.164 927.745 836.849C927.86 837.048 928.117 837.115 928.319 836.998C928.361 836.974 928.399 836.942 928.431 836.906C929.583 835.536 930.393 830.96 933.01 832.503C934.323 833.281 935.409 837.003 935.912 838.436C936.229 839.335 936.508 839.322 936.748 838.4C936.933 837.702 937.334 836.89 937.954 835.965C939.12 834.227 941.185 836.181 941.693 837.366C944.657 844.346 941.857 852.771 939.223 859.411C938.063 862.331 937.165 864.344 936.53 865.449C934.659 868.726 932.026 871.183 928.631 872.819V872.818Z" fill="#ECA9D9"/>
<path d="M1054.71 903H1048.58C1047.72 901.857 1046.79 900.768 1045.79 899.733C1040.09 893.823 1034.42 888.797 1031.2 880.964C1031.13 880.787 1031.19 880.692 1031.38 880.677C1033.38 880.522 1035.69 880.823 1037.13 882.48C1041.84 887.891 1046.06 893.703 1050.84 899.225C1051 899.407 1051.27 899.429 1051.46 899.274C1051.48 899.252 1051.51 899.227 1051.53 899.198C1051.79 898.838 1051.89 898.374 1051.82 897.806C1050.88 889.696 1050.37 881.577 1050.3 873.449C1050.3 873.292 1050.19 873.155 1050.03 873.117C1047.22 872.422 1044.57 871.364 1042.07 869.943C1039.2 868.312 1038.02 866.212 1037.11 863.171C1036.14 859.968 1035.28 856.714 1034.53 853.411C1034.49 853.269 1034.58 853.126 1034.72 853.093C1034.76 853.086 1034.79 853.084 1034.82 853.088C1037.8 853.539 1040.07 857.16 1041.47 859.512C1043.61 863.092 1046.25 866.28 1049.39 869.073C1049.56 869.214 1049.71 869.286 1049.86 869.289C1050.03 869.292 1050.18 869.149 1050.18 868.971C1050.18 868.966 1050.18 868.962 1050.18 868.958C1049.91 861.058 1050.35 853.217 1050.44 845.193C1050.45 844.512 1050.76 844.023 1051.38 843.725L1052.51 843.186C1053.13 842.883 1053.45 843.077 1053.46 843.77C1053.53 851.88 1053.32 859.982 1052.82 868.078C1052.75 869.21 1053.03 869.3 1053.65 868.348C1055.7 865.204 1057.89 861.847 1060.23 858.278C1061.22 856.764 1062.34 855.487 1063.61 854.45C1065.27 853.084 1066.13 855.285 1066.2 856.696C1066.4 860.833 1063.63 864.003 1060.92 867.026C1059.73 868.352 1058.38 869.304 1056.89 869.882C1056.74 869.937 1056.62 870.029 1056.52 870.156C1055.68 871.232 1054.61 871.988 1053.3 872.423C1053.03 872.511 1052.86 872.766 1052.88 873.042L1054.25 895.282C1054.3 896.06 1054.53 896.123 1054.96 895.472L1055.49 894.667C1055.79 894.214 1055.91 893.717 1055.86 893.177C1055.52 889.751 1060.23 885.309 1062.73 883.391C1064.41 882.103 1066.3 881.357 1068.42 881.154C1069.5 881.052 1071.24 881.57 1070.62 882.989C1070.15 884.043 1069.53 885 1068.74 885.858C1064.21 890.803 1059.7 895.774 1055.22 900.772C1054.58 901.488 1054.63 902.12 1054.71 903H1054.71Z" fill="#492A70"/>
<path d="M992.797 903H989.735C989.326 897.691 988.64 892.192 988.796 886.866C988.82 886.117 988.476 885.648 987.764 885.46C984.901 884.706 982.18 883.603 979.602 882.153C976.794 880.579 975.992 877.662 975.396 874.713C974.829 871.908 974.074 869.179 973.131 866.526C973.056 866.311 973.17 866.077 973.385 866.003C973.443 865.982 973.506 865.975 973.567 865.982C976.322 866.287 978.596 869.196 979.802 871.424C981.914 875.32 984.617 878.759 987.91 881.741C988.035 881.856 988.148 881.922 988.249 881.94C988.386 881.967 988.519 881.878 988.547 881.742C988.551 881.722 988.552 881.7 988.551 881.679C988.204 875.557 988.356 869.338 988.311 863.105C988.302 861.473 988.177 855.687 990.162 855.028C990.563 854.895 990.997 855.109 991.132 855.506C991.141 855.534 991.149 855.561 991.155 855.59C991.419 856.798 991.548 857.977 991.542 859.126C991.497 866.442 991.337 873.74 991.204 881.052C991.189 882.009 991.457 882.097 992.009 881.312C994.54 877.711 997.127 874.038 999.771 870.293C1000.76 868.887 1003.99 864.754 1004.84 868.692C1005.24 870.54 1005 872.252 1004.11 873.829C1002.36 876.928 999.686 880.747 996.798 882.211C994.955 883.143 993.794 884.598 991.818 885.416C991.507 885.545 991.317 885.858 991.346 886.189L992.797 903Z" fill="#492A70"/>
<path d="M928.631 872.818C928.714 876.911 928.956 883.656 929.356 893.054C929.487 896.125 929.269 899.44 928.702 903H925.516C926.174 893.103 925.738 883.926 925.133 872.415C926.421 872.292 927.587 872.426 928.631 872.818Z" fill="#492A70"/>
<path d="M412.178 792.934C412.024 793.441 412.129 793.503 412.497 793.123C414.453 791.099 416.628 788.349 419.364 787.348C428.255 784.098 426.046 795.779 423.89 799.265C422.185 802.025 419.559 803.964 416.942 805.818C416.327 806.252 415.291 807.297 413.831 808.955C408.275 815.258 404.043 820.81 394.332 818.391C391.492 817.678 388.865 814.201 386.98 811.776C384.154 808.144 379.78 804.917 376.181 801.859C372.021 798.335 371.916 789.419 374.614 785.098C377.952 779.757 383.808 781.305 386.348 786.325C386.725 787.067 386.934 787.025 386.975 786.197C387.132 783.206 388.02 780.423 390.11 778.153C392.541 775.511 395.775 775.002 397.979 778.318C399.375 780.423 399.999 782.749 399.85 785.301C399.825 785.713 399.822 785.936 399.841 785.971C400.192 786.666 400.477 786.639 400.696 785.891C401.864 781.871 406.024 776.733 410.849 778.144C413.171 778.823 414.382 780.847 414.553 783.263C414.824 786.985 413.166 789.712 412.178 792.934Z" fill="#FFEB99"/>
<path d="M562.604 812.739C562.094 811.672 561.566 810.491 561.018 809.196C559.707 806.068 560.054 801.336 562.78 799.119C564.632 797.619 567.525 797.945 569.476 799.251C572.108 801.011 573.224 804.012 574.283 806.861C574.311 806.943 574.37 806.984 574.458 806.984C574.496 806.987 574.536 806.981 574.577 806.965C574.606 806.956 574.62 806.935 574.62 806.904C574.8 803.139 575.522 795.478 581.335 796.45C585.733 797.181 587.367 802.673 587.514 806.413C587.522 806.582 587.666 806.713 587.836 806.706C587.941 806.701 588.036 806.644 588.089 806.555C589.423 804.238 591.993 800.436 595.289 802.242C598.889 804.219 600.484 809.565 600.29 813.31C600.104 816.919 598.176 819.858 595.488 822.179C591.741 825.42 587.139 828.907 584.385 832.26C582.823 834.166 581.303 836.487 579.199 837.591C577.527 838.472 575.86 838.834 574.198 838.676C565.455 837.865 563.091 832.737 558.313 826.656C556.774 824.703 554.566 823.066 552.975 821.434C550.049 818.428 547.337 812.201 549.636 808.149C550.519 806.588 553.744 806.993 555.064 807.503C555.761 807.77 556.786 808.463 558.137 809.583C559.517 810.725 560.908 811.855 562.307 812.971C562.751 813.323 562.85 813.246 562.606 812.74L562.604 812.739Z" fill="#ECA9D9"/>
<path d="M494.398 824.896C494.51 824.916 494.616 824.844 494.637 824.734C494.644 824.696 494.641 824.658 494.626 824.622C492.879 820.164 490.936 814.041 495.666 810.545C501.323 806.37 506.304 814.027 507.444 818.485C507.472 818.605 507.517 818.683 507.577 818.721C507.617 818.746 507.664 818.76 507.714 818.763C507.822 818.77 507.881 818.719 507.89 818.612C508.208 815.135 509.239 807.088 514.582 807.715C518.98 808.239 520.927 814.778 520.951 818.301C520.96 819.436 521.247 819.511 521.81 818.523C523.515 815.522 526.517 813.201 530.055 815.093C532.021 816.14 533.263 817.924 533.778 820.443C536.514 833.76 527.277 835.383 520.543 842.436C518.19 844.896 515.832 847.348 513.467 849.791C510.864 852.485 503.228 850.726 499.923 848.593C498.814 847.883 497.589 846.701 496.247 845.05C494.734 843.185 493.223 841.322 491.716 839.459C489.641 836.888 486.473 835.412 484.545 832.798C482.376 829.863 481.299 826.492 481.315 822.684C481.325 820.971 481.724 818.938 483.804 818.933C487.945 818.919 490.861 821.698 493.578 824.415C493.847 824.682 494.121 824.843 494.399 824.896L494.398 824.896Z" fill="#FFEB99"/>
<path d="M383.148 903H380.721C381.172 896.527 382.673 890.135 383.913 883.776C384.055 883.049 384.134 882.441 384.15 881.95C384.153 881.789 384.072 881.637 383.936 881.549C383.172 881.049 382.573 880.639 381.999 879.893C378.396 875.26 374.584 870.804 370.564 866.524C369.386 865.266 368.55 863.898 368.056 862.419C367.885 861.904 368.12 861.343 368.607 861.103C373.674 858.584 380.18 866.043 382.478 869.666C383.794 871.742 383.348 873.685 383.955 875.624C384.348 876.877 384.684 876.86 384.962 875.577C386.458 868.656 387.418 861.297 388.643 854.824C388.833 853.818 388.931 852.906 388.937 852.088C388.937 851.931 388.863 851.783 388.738 851.692C386.857 850.311 385.004 848.918 383.177 847.512C381.671 846.351 380.754 845.695 379.724 844.068C377.501 840.553 374.732 837.623 376.243 833.303C376.701 831.988 377.627 831.65 379.016 832.288C380.498 832.972 381.624 835.53 382.474 836.926C383.989 839.412 386.207 842.191 387.327 844.46C387.91 845.643 388.502 846.687 389.104 847.593C389.338 847.945 389.467 847.911 389.488 847.489L390.866 820.627C390.894 820.047 391.391 819.599 391.975 819.627C392.048 819.63 392.12 819.641 392.191 819.66L392.594 819.763C393.5 819.997 393.97 820.577 394.005 821.504C394.195 826.326 393.587 831.77 393.44 835.997C393.304 839.802 393.025 843.606 392.604 847.408C392.578 847.628 392.675 847.759 392.894 847.8C393.074 847.835 393.261 847.767 393.454 847.597C394.901 846.339 396.277 845.011 397.581 843.615C399.695 841.36 401.561 838.572 403.375 835.925C404.605 834.127 407.322 831.405 409.559 831.056C409.693 831.032 409.821 831.122 409.845 831.256C409.849 831.285 409.849 831.316 409.845 831.344C409.056 835.609 407.847 839.771 406.216 843.831C404.236 848.775 399.035 850.441 393.627 851.748C393.347 851.818 392.63 851.851 392.202 852.007C392.041 852.066 391.952 852.182 391.936 852.351C391.062 861.249 389.706 870.071 387.866 878.817C387.736 879.443 387.681 880.032 387.7 880.582C387.706 880.748 387.847 880.879 388.012 880.873C388.079 880.872 388.143 880.847 388.194 880.804C389.099 880.055 389.929 879.266 390.682 878.435C395.026 873.661 399.332 868.852 403.599 864.009C405.143 862.264 408.577 860.126 411.003 861.094C411.292 861.211 411.432 861.537 411.314 861.822C411.309 861.834 411.304 861.846 411.298 861.858C407.29 869.916 400.68 875.623 394.073 881.45C391.399 883.814 389.429 884.512 386.84 885.97C386.567 886.122 386.374 886.387 386.313 886.691L383.15 903H383.148Z" fill="#492A70"/>
<path d="M446.576 870.789C445.462 870.371 444.218 870.227 442.843 870.359C440.732 869.749 438.854 868.338 437.211 866.127C429.878 856.262 429.014 845.021 428.662 832.935C428.619 831.519 428.182 826.49 431.165 827.462C433.63 828.264 435.159 830.18 436.608 832.114C437.289 833.022 437.614 832.911 437.586 831.779C437.553 830.477 437.391 828.236 438.488 827.066C438.59 826.959 438.724 826.889 438.868 826.868C441.229 826.537 444.577 830.604 445.631 832.402C445.754 832.614 446.028 832.686 446.244 832.561C446.288 832.536 446.328 832.502 446.363 832.463C447.593 831 448.457 826.117 451.25 827.764C452.651 828.594 453.809 832.567 454.346 834.095C454.685 835.055 454.982 835.042 455.239 834.058C455.436 833.312 455.864 832.446 456.526 831.458C457.77 829.604 459.974 831.689 460.515 832.954C463.678 840.403 460.691 849.394 457.88 856.48C456.642 859.597 455.683 861.746 455.006 862.925C453.009 866.422 450.199 869.044 446.576 870.79V870.789Z" fill="#ECA9D9"/>
<path d="M581.126 903H574.581C573.663 901.78 572.67 900.617 571.603 899.513C565.524 893.206 559.47 887.843 556.031 879.483C555.955 879.294 556.02 879.192 556.226 879.176C558.359 879.011 560.823 879.332 562.362 881.101C567.392 886.875 571.894 893.078 576.994 898.971C577.16 899.165 577.454 899.189 577.65 899.024C577.679 899 577.703 898.973 577.725 898.943C578.01 898.559 578.116 898.063 578.043 897.456C577.034 888.801 576.49 880.136 576.414 871.462C576.414 871.294 576.298 871.148 576.134 871.108C573.133 870.366 570.301 869.237 567.638 867.721C564.574 865.98 563.316 863.739 562.338 860.493C561.305 857.075 560.387 853.602 559.583 850.077C559.547 849.925 559.643 849.773 559.796 849.738C559.83 849.73 559.866 849.728 559.901 849.733C563.078 850.214 565.496 854.078 566.992 856.588C569.274 860.409 572.093 863.811 575.45 866.792C575.624 866.943 575.789 867.02 575.944 867.023C576.133 867.026 576.288 866.874 576.291 866.683C576.291 866.678 576.291 866.674 576.291 866.669C576.001 858.238 576.471 849.87 576.571 841.307C576.578 840.58 576.91 840.059 577.568 839.741L578.775 839.165C579.442 838.841 579.78 839.049 579.786 839.788C579.862 848.443 579.636 857.09 579.107 865.73C579.034 866.938 579.328 867.034 579.99 866.018C582.178 862.663 584.517 859.08 587.01 855.272C588.067 853.655 589.271 852.293 590.619 851.186C592.396 849.728 593.307 852.078 593.383 853.583C593.602 857.999 590.638 861.381 587.746 864.607C586.476 866.023 585.044 867.039 583.448 867.655C583.289 867.714 583.158 867.813 583.054 867.947C582.161 869.096 581.014 869.903 579.615 870.368C579.332 870.461 579.149 870.733 579.169 871.028L580.632 894.763C580.682 895.593 580.936 895.661 581.392 894.965L581.957 894.107C582.273 893.623 582.403 893.093 582.346 892.517C581.985 888.861 587.015 884.119 589.679 882.073C591.471 880.698 593.495 879.902 595.753 879.685C596.903 879.577 598.764 880.129 598.099 881.643C597.603 882.769 596.936 883.79 596.1 884.705C591.26 889.983 586.449 895.288 581.668 900.622C580.984 901.386 581.041 902.061 581.127 903H581.126Z" fill="#492A70"/>
<path d="M515.052 903H511.784C511.348 897.334 510.616 891.466 510.782 885.781C510.808 884.982 510.44 884.482 509.681 884.281C506.626 883.476 503.722 882.299 500.97 880.752C497.974 879.072 497.119 875.958 496.482 872.812C495.877 869.818 495.072 866.905 494.065 864.074C493.985 863.845 494.107 863.595 494.337 863.516C494.398 863.494 494.465 863.486 494.53 863.494C497.47 863.819 499.897 866.924 501.184 869.302C503.438 873.459 506.323 877.129 509.837 880.312C509.97 880.435 510.091 880.505 510.198 880.524C510.345 880.554 510.487 880.458 510.516 880.313C510.521 880.291 510.522 880.269 510.521 880.246C510.151 873.712 510.312 867.075 510.265 860.423C510.255 858.682 510.122 852.506 512.24 851.803C512.668 851.661 513.131 851.889 513.275 852.314C513.284 852.343 513.293 852.372 513.299 852.402C513.582 853.692 513.719 854.95 513.713 856.177C513.665 863.985 513.494 871.773 513.352 879.576C513.336 880.598 513.622 880.691 514.211 879.854C516.912 876.011 519.673 872.091 522.494 868.094C523.553 866.594 526.992 862.182 527.903 866.386C528.331 868.358 528.07 870.185 527.12 871.868C525.253 875.175 522.404 879.251 519.322 880.813C517.355 881.808 516.116 883.361 514.007 884.233C513.676 884.371 513.472 884.705 513.504 885.059L515.052 903Z" fill="#492A70"/>
<path d="M446.576 870.789C446.665 875.157 446.923 882.356 447.35 892.386C447.49 895.663 447.257 899.201 446.652 903H443.252C443.955 892.438 443.489 882.644 442.843 870.359C444.218 870.227 445.462 870.371 446.576 870.789Z" fill="#492A70"/>
<path d="M292.553 764.401C292.741 765.011 292.613 765.086 292.168 764.628C289.801 762.19 287.17 758.876 283.86 757.671C273.104 753.755 275.776 767.828 278.385 772.027C280.447 775.352 283.625 777.688 286.79 779.922C287.534 780.445 288.788 781.704 290.554 783.702C297.276 791.295 302.395 797.983 314.144 795.069C317.58 794.211 320.757 790.022 323.038 787.1C326.457 782.724 331.749 778.836 336.103 775.153C341.136 770.908 341.262 760.167 337.999 754.96C333.959 748.526 326.875 750.391 323.802 756.438C323.346 757.333 323.093 757.282 323.044 756.285C322.854 752.681 321.78 749.328 319.252 746.594C316.31 743.411 312.397 742.797 309.731 746.793C308.042 749.328 307.287 752.131 307.468 755.205C307.499 755.701 307.502 755.97 307.479 756.012C307.054 756.85 306.709 756.817 306.445 755.915C305.031 751.073 299.998 744.883 294.162 746.583C291.352 747.401 289.887 749.839 289.68 752.749C289.353 757.234 291.358 760.519 292.553 764.401Z" fill="#FFEB99"/>
<path d="M32.6395 764.054C32.5188 760.206 31.4674 750.614 25.9286 750.426C19.5165 750.204 16.7184 759.622 16.9425 764.333C17 765.568 16.7437 765.637 16.1726 764.537C14.9971 762.264 13.024 760.388 10.2546 758.911C6.5832 756.95 2.82556 761.014 1.39491 763.952C-0.840134 768.516 -0.386208 777.035 2.71067 781.155C3.40819 782.079 4.8216 783.329 6.95092 784.901C9.87313 787.057 12.8034 789.199 15.7417 791.329C19.5568 794.097 21.6539 798.411 25.4288 801.258C26.1263 801.785 26.8996 802.149 27.75 802.35C33.1796 803.623 39.2584 802.208 43.4171 798.513C44.179 797.839 45.3844 796.558 47.0311 794.671C49.4557 791.892 50.7312 788.538 53.5696 786.538C60.177 781.877 64.5609 776.523 64.1127 767.851C64.0208 766.106 63.9059 764.577 62.0845 763.867C57.0457 761.912 50.4095 770.414 47.8366 773.114C47.7792 773.169 47.6884 773.166 47.6332 773.11C47.5964 773.071 47.5838 773.016 47.601 772.966C49.974 766.873 55.2427 756.661 46.0382 752.955C43.74 752.031 41.5038 752.366 39.3274 753.961C35.6789 756.633 34.6102 760.06 33.2887 764.146C32.8946 765.355 32.6774 765.325 32.6395 764.055V764.054Z" fill="#CBA7D1"/>
<path d="M110.569 788.26C111.186 786.975 111.825 785.552 112.488 783.991C114.074 780.223 113.655 774.522 110.357 771.852C108.116 770.045 104.617 770.437 102.256 772.011C99.0725 774.131 97.7222 777.746 96.441 781.179C96.4065 781.278 96.3352 781.327 96.2284 781.327C96.1824 781.33 96.1341 781.324 96.0847 781.304C96.0502 781.293 96.033 781.268 96.033 781.23C95.8147 776.695 94.9414 767.466 87.9087 768.636C82.5883 769.517 80.6118 776.133 80.4337 780.639C80.4245 780.843 80.2499 781.001 80.0442 780.992C79.9178 780.986 79.8028 780.918 79.7385 780.81C78.124 778.019 75.0156 773.438 71.0282 775.615C66.673 777.996 64.7425 784.436 64.9781 788.948C65.2021 793.296 67.5349 796.837 70.7869 799.633C75.3201 803.538 80.8876 807.738 84.2189 811.778C86.1092 814.074 87.9478 816.87 90.4931 818.2C92.5156 819.261 94.5323 819.697 96.5432 819.508C107.121 818.53 109.981 812.352 115.761 805.027C117.623 802.674 120.294 800.701 122.219 798.735C125.758 795.114 129.039 787.612 126.258 782.731C125.19 780.849 121.288 781.338 119.691 781.952C118.849 782.274 117.609 783.109 115.974 784.459C114.304 785.834 112.622 787.195 110.929 788.539C110.392 788.964 110.272 788.871 110.567 788.261L110.569 788.26Z" fill="#ECA9D9"/>
<path d="M193.084 802.906C192.95 802.931 192.821 802.843 192.796 802.711C192.787 802.666 192.791 802.619 192.808 802.576C194.923 797.205 197.273 789.829 191.55 785.617C184.707 780.587 178.681 789.812 177.302 795.183C177.268 795.327 177.214 795.421 177.141 795.467C177.092 795.498 177.036 795.515 176.975 795.518C176.845 795.526 176.774 795.465 176.762 795.336C176.377 791.147 175.13 781.452 168.667 782.208C163.346 782.839 160.991 790.716 160.962 794.961C160.95 796.328 160.603 796.418 159.922 795.228C157.859 791.613 154.228 788.817 149.947 791.096C147.569 792.358 146.067 794.506 145.443 797.541C142.133 813.585 153.309 815.54 161.455 824.038C164.301 827.001 167.154 829.954 170.016 832.898C173.164 836.144 182.402 834.024 186.401 831.455C187.742 830.599 189.224 829.176 190.848 827.186C192.679 824.939 194.506 822.695 196.329 820.451C198.84 817.354 202.673 815.575 205.005 812.426C207.629 808.891 208.932 804.829 208.912 800.241C208.901 798.178 208.418 795.728 205.902 795.723C200.891 795.706 197.364 799.053 194.077 802.327C193.752 802.649 193.42 802.842 193.083 802.907L193.084 802.906Z" fill="#FFEB99"/>
<path d="M327.674 897H330.61C330.064 889.202 328.248 881.502 326.749 873.84C326.576 872.965 326.481 872.232 326.461 871.641C326.458 871.446 326.556 871.263 326.72 871.157C327.645 870.555 328.369 870.061 329.064 869.162C333.423 863.581 338.034 858.212 342.898 853.056C344.323 851.541 345.335 849.893 345.932 848.111C346.139 847.491 345.855 846.814 345.266 846.526C339.135 843.49 331.265 852.476 328.484 856.841C326.892 859.342 327.432 861.684 326.697 864.02C326.222 865.528 325.816 865.509 325.479 863.963C323.669 855.625 322.508 846.76 321.026 838.962C320.796 837.749 320.678 836.651 320.67 835.665C320.67 835.475 320.76 835.298 320.911 835.188C323.186 833.525 325.428 831.846 327.639 830.152C329.461 828.754 330.57 827.964 331.816 826.003C334.505 821.769 337.855 818.239 336.028 813.034C335.473 811.45 334.354 811.042 332.672 811.812C330.88 812.636 329.518 815.717 328.49 817.399C326.657 820.394 323.974 823.742 322.618 826.476C321.913 827.9 321.196 829.159 320.469 830.25C320.185 830.674 320.03 830.633 320.003 830.125L318.337 797.763C318.303 797.064 317.702 796.525 316.995 796.558C316.907 796.563 316.819 796.575 316.734 796.598L316.246 796.723C315.151 797.004 314.582 797.703 314.539 798.82C314.31 804.629 315.045 811.188 315.223 816.279C315.387 820.864 315.725 825.447 316.234 830.027C316.265 830.292 316.148 830.45 315.884 830.499C315.665 830.541 315.439 830.459 315.206 830.254C313.456 828.739 311.791 827.14 310.213 825.457C307.656 822.741 305.398 819.381 303.203 816.193C301.715 814.027 298.429 810.748 295.723 810.327C295.56 810.299 295.405 810.407 295.377 810.568C295.371 810.604 295.371 810.64 295.377 810.674C296.33 815.812 297.793 820.826 299.766 825.718C302.162 831.674 308.454 833.68 314.997 835.255C315.336 835.34 316.203 835.38 316.72 835.567C316.916 835.639 317.023 835.778 317.042 835.982C318.099 846.702 319.74 857.329 321.966 867.867C322.124 868.62 322.19 869.33 322.167 869.992C322.159 870.192 321.989 870.35 321.789 870.344C321.709 870.341 321.631 870.312 321.57 870.259C320.475 869.358 319.47 868.407 318.559 867.406C313.304 861.654 308.095 855.862 302.932 850.027C301.065 847.924 296.911 845.349 293.975 846.514C293.625 846.655 293.456 847.048 293.599 847.392C293.605 847.407 293.612 847.421 293.618 847.435C298.468 857.143 306.464 864.019 314.457 871.038C317.691 873.886 320.076 874.727 323.207 876.483C323.538 876.667 323.771 876.985 323.845 877.353L327.671 897H327.674Z" fill="#492A70"/>
<path d="M19.196 897H22.9651L24.6313 883.576C24.6784 883.19 24.9048 882.845 25.2461 882.644C27.4903 881.318 29.6622 879.738 31.7616 877.904C37.2843 873.084 41.3636 869.208 43.9986 866.275C47.5379 862.342 51.2668 857.608 53.0134 852.545C53.1157 852.241 52.9525 851.913 52.648 851.813C52.6158 851.801 52.5814 851.793 52.548 851.789C49.2007 851.311 46.4657 852.414 44.3433 855.097C38.4139 862.593 32.6798 869.907 25.8379 876.654C25.7322 876.762 25.5564 876.763 25.446 876.655C25.4116 876.622 25.3863 876.58 25.3725 876.534C25.3415 876.432 25.3403 876.292 25.3668 876.114C27.395 862.787 28.59 853.704 28.9118 842.274C28.9233 841.88 29.1267 841.655 29.5208 841.598C33.7151 841.012 40.2938 838.608 43.1023 835.113C43.9101 834.101 44.6846 832.485 45.4235 830.265C46.6186 826.676 47.7424 823.066 48.7961 819.431C49.0915 818.412 49.4454 817.437 49.8591 816.504C49.9246 816.354 49.8534 816.18 49.6982 816.114C49.6775 816.105 49.6568 816.1 49.635 816.095C45.2913 815.322 42.1083 820.904 40.3501 823.99C38.1702 827.824 35.5916 831.388 32.6108 834.681C31.8064 835.575 30.8894 836.31 29.8587 836.886C29.6507 837 29.3887 836.927 29.2738 836.725C29.2335 836.654 29.2152 836.575 29.2209 836.494C29.3588 833.953 29.6633 831.367 29.6518 828.883C29.6369 822.556 29.6311 816.228 29.6346 809.901C29.6346 807.747 29.3818 804.598 27.6868 803.03C27.28 802.651 26.64 802.67 26.2573 803.073C26.1505 803.185 26.0712 803.319 26.0263 803.467C25.7655 804.297 25.6127 805.258 25.5667 806.349C25.1703 815.784 25.4518 824.246 25.515 834.624C25.523 835.389 25.4725 836.048 25.3656 836.602C25.3081 836.886 25.1725 836.929 24.9577 836.733C24.3865 836.218 23.912 835.644 23.5328 835.01C21.0277 830.839 18.4904 826.684 15.9198 822.547C14.9718 821.018 10.9269 816.005 9.11706 818.438C5.6065 823.133 11.3234 830.158 13.9836 833.76C14.4627 834.41 15.0511 834.972 15.7245 835.42C18.7467 837.426 21.6597 839.762 25.0209 841.405C25.276 841.527 25.4254 841.798 25.3943 842.081C25.0956 844.764 24.9749 847.554 24.6474 850.129C24.0614 854.767 23.5098 859.229 23.3489 864.036C23.2455 867.128 22.9295 869.862 21.1311 871.896C21.0104 872.029 20.8025 872.04 20.668 871.92C20.6083 871.867 20.5703 871.794 20.5623 871.714C20.3612 869.464 20.344 867.02 19.1891 864.957C16.8219 860.713 13.6101 857.243 9.5537 854.544C6.97393 852.828 2.92905 851.725 0.699757 854.419C0.309055 854.893 0.358444 855.474 0.849121 856.164C2.65324 858.693 4.3999 860.853 6.76709 863.229C10.3213 866.795 13.6561 870.55 16.7702 874.499C17.9653 876.015 19.35 877.142 20.9243 877.881C21.315 878.061 21.5425 878.47 21.4873 878.893L19.1948 897H19.196Z" fill="#492A70"/>
<path d="M250.939 858.194C252.287 857.691 253.792 857.518 255.455 857.677C258.01 856.941 260.281 855.242 262.269 852.579C271.14 840.694 272.186 827.151 272.611 812.591C272.663 810.886 273.192 804.827 269.583 805.998C266.601 806.964 264.751 809.271 262.999 811.602C262.175 812.696 261.781 812.562 261.815 811.198C261.856 809.629 262.051 806.93 260.724 805.52C260.601 805.392 260.439 805.308 260.264 805.281C257.409 804.884 253.358 809.783 252.082 811.948C251.934 812.204 251.602 812.291 251.341 812.14C251.287 812.11 251.239 812.069 251.198 812.022C249.709 810.26 248.664 804.378 245.285 806.361C243.59 807.362 242.188 812.147 241.539 813.989C241.129 815.145 240.769 815.129 240.459 813.943C240.221 813.045 239.703 812.002 238.902 810.812C237.397 808.578 234.731 811.09 234.076 812.613C230.249 821.588 233.863 832.42 237.264 840.957C238.762 844.711 239.921 847.3 240.741 848.721C243.157 852.933 246.556 856.092 250.939 858.195V858.194Z" fill="#ECA9D9"/>
<path d="M88.1627 897H96.0801C97.1913 895.53 98.3921 894.13 99.6826 892.8C107.037 885.201 114.361 878.739 118.521 868.668C118.613 868.441 118.535 868.318 118.286 868.298C115.706 868.1 112.724 868.486 110.862 870.617C104.778 877.574 99.331 885.047 93.1614 892.146C92.9603 892.38 92.604 892.409 92.3673 892.21C92.3329 892.181 92.303 892.148 92.2765 892.112C91.9318 891.649 91.8031 891.053 91.8916 890.322C93.1131 879.894 93.7704 869.456 93.8623 859.006C93.8623 858.803 94.0025 858.627 94.2013 858.579C97.8325 857.685 101.258 856.325 104.48 854.499C108.186 852.401 109.709 849.701 110.892 845.791C112.141 841.673 113.251 837.49 114.225 833.243C114.268 833.06 114.152 832.876 113.967 832.833C113.926 832.824 113.882 832.822 113.84 832.828C109.996 833.408 107.071 838.062 105.262 841.086C102.5 845.69 99.0897 849.788 95.0287 853.379C94.8184 853.561 94.6184 853.654 94.4311 853.657C94.2025 853.661 94.0152 853.478 94.0117 853.248C94.0117 853.242 94.0117 853.237 94.0117 853.231C94.3622 843.074 93.7934 832.993 93.6727 822.677C93.6647 821.801 93.2625 821.173 92.4661 820.79L91.0068 820.096C90.1989 819.706 89.791 819.957 89.783 820.847C89.691 831.274 89.9645 841.691 90.6046 852.1C90.693 853.555 90.3368 853.671 89.5359 852.447C86.8895 848.404 84.0592 844.088 81.0439 839.5C79.7649 837.553 78.309 835.912 76.6772 834.578C74.5284 832.822 73.4252 835.653 73.3333 837.466C73.069 842.786 76.6543 846.861 80.1533 850.747C81.6897 852.452 83.4226 853.677 85.3531 854.419C85.545 854.491 85.7036 854.609 85.83 854.771C86.9101 856.155 88.2971 857.127 89.9898 857.687C90.3322 857.8 90.554 858.127 90.5299 858.483L88.7602 887.076C88.6993 888.077 88.3925 888.158 87.8409 887.321L87.1572 886.286C86.7745 885.703 86.6171 885.064 86.6861 884.371C87.1227 879.966 81.0381 874.254 77.8149 871.788C75.6465 870.132 73.1977 869.174 70.4662 868.912C69.0758 868.782 66.8235 869.447 67.6279 871.271C68.2289 872.627 69.0356 873.857 70.0468 874.96C75.9027 881.318 81.723 887.709 87.5065 894.135C88.3339 895.056 88.265 895.869 88.1615 897H88.1627Z" fill="#492A70"/>
<path d="M168.098 897H172.051C172.579 890.174 173.464 883.105 173.263 876.256C173.232 875.293 173.677 874.69 174.596 874.448C178.292 873.479 181.804 872.061 185.133 870.197C188.759 868.174 189.793 864.422 190.563 860.631C191.295 857.024 192.27 853.515 193.488 850.105C193.584 849.829 193.437 849.528 193.159 849.432C193.084 849.406 193.004 849.397 192.925 849.406C189.368 849.798 186.432 853.538 184.875 856.403C182.148 861.411 178.658 865.833 174.406 869.667C174.246 869.815 174.1 869.9 173.97 869.923C173.793 869.958 173.62 869.843 173.585 869.668C173.579 869.642 173.578 869.615 173.579 869.588C174.027 861.716 173.832 853.72 173.889 845.706C173.901 843.609 174.062 836.169 171.499 835.322C170.982 835.15 170.421 835.425 170.248 835.937C170.236 835.972 170.226 836.007 170.218 836.044C169.877 837.598 169.71 839.113 169.718 840.591C169.775 849.997 169.982 859.38 170.155 868.781C170.174 870.012 169.827 870.124 169.115 869.116C165.848 864.486 162.507 859.763 159.094 854.948C157.813 853.14 153.653 847.826 152.55 852.89C152.033 855.266 152.349 857.467 153.498 859.495C155.756 863.479 159.204 868.39 162.932 870.271C165.311 871.47 166.811 873.34 169.362 874.392C169.763 874.557 170.009 874.96 169.971 875.386L168.098 897Z" fill="#492A70"/>
<path d="M250.939 858.194C250.832 863.457 250.519 872.129 250.002 884.213C249.833 888.161 250.115 892.423 250.847 897H254.961C254.11 884.275 254.674 872.476 255.455 857.677C253.792 857.518 252.287 857.691 250.939 858.194Z" fill="#492A70"/>
<path d="M1393.07 755.268C1393.28 755.934 1393.14 756.016 1392.66 755.516C1390.09 752.854 1387.24 749.238 1383.65 747.923C1371.99 743.648 1374.89 759.009 1377.72 763.592C1379.95 767.221 1383.4 769.771 1386.83 772.209C1387.63 772.78 1388.99 774.154 1390.91 776.334C1398.19 784.623 1403.74 791.923 1416.47 788.742C1420.2 787.805 1423.64 783.233 1426.11 780.044C1429.82 775.267 1435.55 771.024 1440.27 767.004C1445.73 762.37 1445.86 750.646 1442.33 744.963C1437.95 737.941 1430.27 739.976 1426.94 746.576C1426.45 747.553 1426.17 747.497 1426.12 746.409C1425.91 742.476 1424.75 738.815 1422.01 735.831C1418.82 732.357 1414.58 731.687 1411.69 736.049C1409.86 738.815 1409.04 741.875 1409.24 745.23C1409.27 745.772 1409.28 746.065 1409.25 746.111C1408.79 747.025 1408.42 746.989 1408.13 746.006C1406.6 740.72 1401.14 733.964 1394.82 735.819C1391.77 736.712 1390.18 739.374 1389.96 742.55C1389.6 747.445 1391.78 751.031 1393.07 755.268Z" fill="#FFEB99"/>
<path d="M1195.84 781.31C1196.51 779.908 1197.2 778.354 1197.92 776.651C1199.64 772.538 1199.18 766.315 1195.61 763.401C1193.18 761.428 1189.39 761.856 1186.83 763.575C1183.38 765.889 1181.91 769.834 1180.52 773.581C1180.49 773.689 1180.41 773.743 1180.29 773.743C1180.24 773.746 1180.19 773.739 1180.14 773.718C1180.1 773.705 1180.08 773.678 1180.08 773.637C1179.85 768.687 1178.9 758.613 1171.28 759.891C1165.51 760.852 1163.37 768.074 1163.18 772.992C1163.17 773.214 1162.98 773.386 1162.75 773.377C1162.62 773.37 1162.49 773.296 1162.42 773.178C1160.67 770.132 1157.3 765.132 1152.98 767.508C1148.26 770.107 1146.17 777.136 1146.42 782.061C1146.67 786.806 1149.2 790.671 1152.72 793.724C1157.63 797.986 1163.67 802.57 1167.28 806.98C1169.33 809.486 1171.32 812.538 1174.08 813.99C1176.27 815.148 1178.46 815.624 1180.64 815.417C1192.1 814.35 1195.2 807.606 1201.46 799.611C1203.48 797.043 1206.38 794.89 1208.46 792.743C1212.3 788.792 1215.85 780.603 1212.84 775.275C1211.68 773.221 1207.45 773.755 1205.72 774.425C1204.81 774.776 1203.47 775.688 1201.69 777.161C1199.88 778.662 1198.06 780.147 1196.23 781.615C1195.64 782.078 1195.51 781.977 1195.83 781.311L1195.84 781.31Z" fill="#ECA9D9"/>
<path d="M1285.27 797.296C1285.12 797.323 1284.98 797.227 1284.95 797.083C1284.94 797.034 1284.95 796.983 1284.97 796.936C1287.26 791.073 1289.81 783.022 1283.6 778.425C1276.19 772.935 1269.66 783.003 1268.16 788.866C1268.13 789.024 1268.07 789.127 1267.99 789.176C1267.93 789.21 1267.87 789.228 1267.81 789.232C1267.67 789.241 1267.59 789.174 1267.58 789.033C1267.16 784.461 1265.81 773.879 1258.8 774.704C1253.04 775.393 1250.48 783.991 1250.45 788.624C1250.44 790.117 1250.06 790.215 1249.33 788.916C1247.09 784.97 1243.15 781.918 1238.52 784.405C1235.94 785.783 1234.31 788.128 1233.63 791.441C1230.05 808.952 1242.16 811.087 1250.99 820.361C1254.07 823.596 1257.16 826.819 1260.27 830.033C1263.68 833.575 1273.69 831.261 1278.02 828.457C1279.48 827.523 1281.08 825.969 1282.84 823.798C1284.83 821.345 1286.81 818.896 1288.78 816.447C1291.51 813.066 1295.66 811.124 1298.19 807.687C1301.03 803.828 1302.44 799.395 1302.42 794.387C1302.41 792.135 1301.89 789.462 1299.16 789.455C1293.73 789.437 1289.91 793.091 1286.34 796.664C1285.99 797.015 1285.63 797.226 1285.27 797.297L1285.27 797.296Z" fill="#FFEB99"/>
<path d="M1431.14 900H1434.32C1433.73 891.488 1431.76 883.084 1430.14 874.721C1429.95 873.766 1429.84 872.965 1429.82 872.32C1429.82 872.108 1429.93 871.908 1430.1 871.793C1431.11 871.135 1431.89 870.595 1432.64 869.615C1437.37 863.523 1442.37 857.663 1447.64 852.035C1449.18 850.381 1450.28 848.582 1450.93 846.638C1451.15 845.96 1450.84 845.222 1450.2 844.907C1443.56 841.594 1435.03 851.402 1432.02 856.167C1430.29 858.896 1430.88 861.452 1430.08 864.002C1429.56 865.649 1429.12 865.627 1428.76 863.94C1426.8 854.839 1425.54 845.163 1423.93 836.651C1423.68 835.327 1423.56 834.129 1423.55 833.053C1423.55 832.846 1423.64 832.652 1423.81 832.532C1426.27 830.716 1428.7 828.884 1431.1 827.035C1433.07 825.509 1434.28 824.647 1435.63 822.506C1438.54 817.885 1442.17 814.032 1440.19 808.351C1439.59 806.622 1438.38 806.177 1436.56 807.017C1434.61 807.916 1433.14 811.279 1432.02 813.115C1430.04 816.385 1427.13 820.039 1425.66 823.023C1424.89 824.577 1424.12 825.951 1423.33 827.142C1423.02 827.605 1422.85 827.56 1422.82 827.005L1421.02 791.682C1420.98 790.919 1420.33 790.331 1419.56 790.367C1419.47 790.372 1419.37 790.386 1419.28 790.411L1418.75 790.547C1417.56 790.854 1416.95 791.617 1416.9 792.836C1416.65 799.177 1417.45 806.336 1417.64 811.893C1417.82 816.897 1418.19 821.9 1418.74 826.899C1418.77 827.188 1418.65 827.36 1418.36 827.414C1418.12 827.46 1417.88 827.37 1417.62 827.147C1415.73 825.493 1413.92 823.747 1412.21 821.911C1409.44 818.945 1406.99 815.279 1404.62 811.799C1403 809.435 1399.44 805.856 1396.51 805.396C1396.33 805.365 1396.16 805.483 1396.13 805.66C1396.13 805.698 1396.13 805.738 1396.13 805.775C1397.17 811.383 1398.75 816.856 1400.89 822.195C1403.49 828.697 1410.31 830.886 1417.4 832.605C1417.77 832.698 1418.71 832.741 1419.27 832.946C1419.48 833.024 1419.59 833.176 1419.61 833.399C1420.76 845.099 1422.54 856.699 1424.95 868.201C1425.12 869.023 1425.19 869.798 1425.17 870.521C1425.16 870.739 1424.98 870.912 1424.76 870.904C1424.67 870.902 1424.59 870.87 1424.52 870.813C1423.34 869.829 1422.25 868.79 1421.26 867.698C1415.56 861.42 1409.92 855.097 1404.32 848.728C1402.3 846.433 1397.8 843.623 1394.61 844.895C1394.24 845.048 1394.05 845.478 1394.21 845.852C1394.21 845.869 1394.22 845.885 1394.23 845.9C1399.48 856.496 1408.15 864.001 1416.81 871.662C1420.32 874.771 1422.9 875.689 1426.3 877.606C1426.66 877.807 1426.91 878.154 1426.99 878.555L1431.14 900H1431.14Z" fill="#492A70"/>
<path d="M1347.97 857.643C1349.43 857.094 1351.06 856.905 1352.87 857.079C1355.63 856.276 1358.1 854.421 1360.25 851.514C1369.87 838.542 1371 823.76 1371.46 807.867C1371.52 806.006 1372.09 799.393 1368.18 800.671C1364.95 801.725 1362.94 804.244 1361.04 806.787C1360.15 807.982 1359.72 807.836 1359.76 806.347C1359.8 804.635 1360.01 801.688 1358.58 800.149C1358.44 800.009 1358.27 799.917 1358.08 799.889C1354.98 799.455 1350.59 804.802 1349.21 807.166C1349.05 807.445 1348.69 807.539 1348.41 807.376C1348.35 807.342 1348.3 807.297 1348.25 807.246C1346.64 805.323 1345.51 798.902 1341.84 801.068C1340.01 802.159 1338.49 807.383 1337.78 809.393C1337.34 810.655 1336.95 810.637 1336.61 809.343C1336.36 808.363 1335.79 807.224 1334.93 805.925C1333.29 803.487 1330.4 806.229 1329.69 807.892C1325.55 817.687 1329.46 829.511 1333.15 838.829C1334.77 842.927 1336.03 845.752 1336.92 847.303C1339.54 851.901 1343.22 855.349 1347.97 857.645V857.643Z" fill="#ECA9D9"/>
<path d="M1171.55 900H1180.13C1181.34 898.396 1182.64 896.867 1184.04 895.415C1192.01 887.121 1199.95 880.069 1204.46 869.075C1204.55 868.827 1204.47 868.693 1204.2 868.672C1201.4 868.455 1198.17 868.877 1196.15 871.203C1189.56 878.797 1183.66 886.953 1176.97 894.702C1176.75 894.958 1176.37 894.989 1176.11 894.771C1176.07 894.74 1176.04 894.704 1176.01 894.665C1175.64 894.16 1175.5 893.508 1175.59 892.711C1176.92 881.329 1177.63 869.935 1177.73 858.529C1177.73 858.308 1177.88 858.116 1178.1 858.064C1182.03 857.087 1185.74 855.603 1189.24 853.61C1193.25 851.32 1194.9 848.374 1196.19 844.105C1197.54 839.61 1198.74 835.044 1199.8 830.409C1199.85 830.209 1199.72 830.008 1199.52 829.962C1199.47 829.952 1199.43 829.95 1199.38 829.956C1195.22 830.589 1192.05 835.67 1190.08 838.97C1187.09 843.995 1183.39 848.468 1178.99 852.387C1178.77 852.586 1178.55 852.688 1178.35 852.691C1178.1 852.695 1177.9 852.495 1177.89 852.245C1177.89 852.238 1177.89 852.232 1177.89 852.226C1178.27 841.14 1177.65 830.136 1177.52 818.876C1177.52 817.921 1177.08 817.234 1176.22 816.816L1174.63 816.059C1173.76 815.634 1173.32 815.907 1173.31 816.878C1173.21 828.26 1173.5 839.63 1174.2 850.992C1174.29 852.58 1173.91 852.706 1173.04 851.37C1170.17 846.958 1167.1 842.247 1163.84 837.239C1162.45 835.114 1160.87 833.322 1159.1 831.867C1156.77 829.95 1155.58 833.039 1155.48 835.018C1155.19 840.825 1159.08 845.273 1162.87 849.515C1164.54 851.376 1166.41 852.712 1168.51 853.523C1168.71 853.601 1168.89 853.73 1169.02 853.907C1170.19 855.417 1171.7 856.478 1173.53 857.09C1173.9 857.213 1174.14 857.57 1174.12 857.958L1172.2 889.168C1172.13 890.26 1171.8 890.349 1171.2 889.435L1170.46 888.306C1170.05 887.669 1169.88 886.972 1169.95 886.215C1170.42 881.407 1163.83 875.173 1160.34 872.481C1157.99 870.674 1155.33 869.628 1152.37 869.342C1150.87 869.2 1148.42 869.925 1149.3 871.917C1149.95 873.397 1150.82 874.739 1151.92 875.943C1158.26 882.883 1164.57 889.859 1170.84 896.873C1171.74 897.878 1171.66 898.765 1171.55 900H1171.55Z" fill="#492A70"/>
<path d="M1258.19 900H1262.47C1263.04 892.549 1264 884.833 1263.79 877.358C1263.75 876.307 1264.23 875.649 1265.23 875.385C1269.24 874.326 1273.04 872.779 1276.65 870.744C1280.58 868.536 1281.7 864.441 1282.54 860.303C1283.33 856.367 1284.38 852.536 1285.7 848.814C1285.81 848.513 1285.65 848.184 1285.35 848.08C1285.27 848.051 1285.18 848.041 1285.09 848.051C1281.24 848.479 1278.06 852.561 1276.37 855.688C1273.41 861.155 1269.63 865.981 1265.02 870.166C1264.85 870.327 1264.69 870.421 1264.55 870.445C1264.36 870.484 1264.17 870.359 1264.13 870.167C1264.13 870.139 1264.13 870.109 1264.13 870.079C1264.61 861.487 1264.4 852.76 1264.46 844.012C1264.48 841.723 1264.65 833.603 1261.87 832.678C1261.31 832.491 1260.71 832.791 1260.52 833.349C1260.5 833.388 1260.49 833.426 1260.48 833.466C1260.11 835.162 1259.93 836.816 1259.94 838.429C1260.01 848.696 1260.23 858.937 1260.42 869.198C1260.44 870.542 1260.06 870.665 1259.29 869.564C1255.75 864.511 1252.13 859.356 1248.43 854.1C1247.04 852.127 1242.53 846.326 1241.34 851.854C1240.78 854.447 1241.12 856.849 1242.36 859.063C1244.81 863.412 1248.55 868.772 1252.59 870.825C1255.17 872.134 1256.79 874.175 1259.56 875.323C1259.99 875.504 1260.26 875.943 1260.22 876.408L1258.19 900Z" fill="#492A70"/>
<path d="M1347.97 857.643C1347.86 863.388 1347.52 872.854 1346.96 886.043C1346.77 890.352 1347.08 895.005 1347.87 900H1352.33C1351.41 886.111 1352.02 873.232 1352.87 857.079C1351.06 856.905 1349.43 857.094 1347.97 857.643Z" fill="#492A70"/>
<path d="M675.39 803.067C675.252 803.518 675.346 803.574 675.674 803.235C677.418 801.434 679.358 798.987 681.797 798.097C689.724 795.205 687.754 805.599 685.832 808.7C684.312 811.156 681.97 812.881 679.637 814.531C679.089 814.917 678.165 815.847 676.863 817.322C671.909 822.93 668.136 827.87 659.478 825.718C656.945 825.084 654.604 821.99 652.923 819.832C650.403 816.6 646.503 813.729 643.294 811.009C639.585 807.873 639.492 799.94 641.897 796.095C644.874 791.343 650.095 792.72 652.359 797.186C652.696 797.847 652.882 797.809 652.918 797.073C653.058 794.412 653.85 791.935 655.713 789.916C657.881 787.565 660.765 787.112 662.73 790.063C663.975 791.935 664.531 794.005 664.398 796.275C664.375 796.642 664.373 796.84 664.39 796.872C664.703 797.49 664.957 797.466 665.152 796.8C666.193 793.224 669.903 788.652 674.204 789.907C676.275 790.512 677.355 792.313 677.507 794.462C677.748 797.774 676.271 800.2 675.39 803.067Z" fill="#FFEB99"/>
<path d="M765.585 831.505C765.684 831.524 765.779 831.459 765.798 831.362C765.805 831.328 765.801 831.294 765.789 831.262C764.23 827.295 762.498 821.847 766.716 818.737C771.759 815.022 776.2 821.835 777.217 825.801C777.242 825.908 777.282 825.978 777.335 826.011C777.372 826.034 777.413 826.047 777.458 826.049C777.554 826.055 777.606 826.01 777.615 825.915C777.898 822.821 778.817 815.661 783.581 816.219C787.502 816.685 789.238 822.503 789.259 825.638C789.268 826.648 789.524 826.714 790.026 825.835C791.546 823.165 794.222 821.1 797.377 822.783C799.13 823.715 800.237 825.302 800.697 827.544C803.136 839.393 794.9 840.837 788.896 847.113C786.798 849.301 784.696 851.482 782.587 853.657C780.266 856.054 773.458 854.488 770.511 852.591C769.523 851.958 768.43 850.907 767.233 849.438C765.884 847.778 764.538 846.121 763.194 844.464C761.343 842.176 758.519 840.862 756.8 838.537C754.866 835.926 753.906 832.926 753.92 829.537C753.929 828.014 754.284 826.204 756.139 826.2C759.832 826.188 762.431 828.66 764.854 831.078C765.093 831.316 765.338 831.458 765.586 831.506L765.585 831.505Z" fill="#FFEB99"/>
<path d="M649.506 901H647.342C647.745 895.241 649.083 889.554 650.188 883.895C650.315 883.249 650.385 882.707 650.4 882.271C650.402 882.127 650.33 881.992 650.209 881.914C649.527 881.469 648.994 881.104 648.481 880.44C645.269 876.318 641.871 872.353 638.286 868.545C637.236 867.426 636.49 866.208 636.05 864.893C635.897 864.434 636.107 863.935 636.541 863.722C641.059 861.48 646.86 868.117 648.909 871.34C650.082 873.187 649.684 874.917 650.226 876.642C650.576 877.756 650.876 877.742 651.124 876.6C652.458 870.442 653.313 863.894 654.406 858.135C654.575 857.239 654.662 856.428 654.668 855.7C654.668 855.56 654.602 855.429 654.49 855.348C652.813 854.12 651.161 852.88 649.532 851.629C648.189 850.596 647.372 850.013 646.453 848.564C644.471 845.437 642.003 842.83 643.349 838.986C643.758 837.816 644.583 837.515 645.822 838.083C647.143 838.692 648.147 840.967 648.905 842.21C650.256 844.422 652.233 846.894 653.233 848.914C653.752 849.966 654.28 850.895 654.816 851.701C655.025 852.014 655.14 851.984 655.159 851.609L656.387 827.707C656.413 827.191 656.856 826.793 657.376 826.817C657.442 826.821 657.506 826.83 657.569 826.847L657.929 826.939C658.736 827.147 659.155 827.663 659.186 828.488C659.356 832.778 658.814 837.622 658.682 841.383C658.561 844.769 658.312 848.154 657.937 851.536C657.914 851.732 658.001 851.849 658.195 851.885C658.356 851.916 658.523 851.855 658.695 851.704C659.985 850.585 661.212 849.404 662.375 848.161C664.259 846.155 665.923 843.674 667.541 841.319C668.638 839.72 671.06 837.298 673.054 836.987C673.174 836.966 673.288 837.046 673.309 837.165C673.313 837.191 673.313 837.218 673.309 837.243C672.606 841.038 671.528 844.741 670.074 848.354C668.308 852.753 663.671 854.235 658.849 855.397C658.599 855.46 657.96 855.49 657.579 855.628C657.435 855.681 657.356 855.784 657.342 855.935C656.563 863.852 655.353 871.701 653.713 879.483C653.597 880.04 653.548 880.564 653.565 881.053C653.57 881.201 653.696 881.318 653.843 881.313C653.902 881.311 653.96 881.289 654.005 881.25C654.812 880.585 655.552 879.882 656.224 879.143C660.097 874.895 663.936 870.617 667.741 866.307C669.117 864.754 672.178 862.853 674.342 863.713C674.6 863.817 674.724 864.108 674.619 864.361C674.615 864.372 674.61 864.383 674.605 864.393C671.031 871.563 665.137 876.641 659.247 881.826C656.863 883.929 655.106 884.55 652.798 885.847C652.554 885.983 652.382 886.218 652.328 886.489L649.508 901H649.506Z" fill="#492A70"/>
<path d="M706.059 872.339C705.066 871.967 703.956 871.84 702.731 871.957C700.848 871.414 699.174 870.159 697.709 868.192C691.171 859.415 690.4 849.412 690.087 838.658C690.049 837.399 689.659 832.924 692.318 833.789C694.516 834.503 695.88 836.207 697.171 837.928C697.778 838.736 698.069 838.637 698.043 837.63C698.014 836.471 697.87 834.477 698.848 833.436C698.939 833.341 699.058 833.279 699.187 833.26C701.291 832.966 704.277 836.585 705.217 838.184C705.326 838.373 705.571 838.437 705.763 838.326C705.803 838.303 705.838 838.273 705.869 838.239C706.965 836.937 707.736 832.593 710.226 834.058C711.475 834.796 712.508 838.331 712.987 839.691C713.289 840.545 713.554 840.533 713.783 839.657C713.958 838.994 714.34 838.223 714.931 837.344C716.04 835.695 718.005 837.55 718.487 838.675C721.308 845.303 718.644 853.303 716.137 859.608C715.034 862.382 714.179 864.293 713.576 865.343C711.794 868.454 709.289 870.787 706.059 872.34V872.339Z" fill="#ECA9D9"/>
<path d="M784 901H781.087C780.697 895.959 780.045 890.737 780.193 885.679C780.216 884.968 779.888 884.523 779.211 884.344C776.487 883.628 773.898 882.581 771.445 881.204C768.773 879.71 768.011 876.939 767.443 874.139C766.904 871.476 766.186 868.884 765.288 866.365C765.217 866.161 765.325 865.939 765.53 865.868C765.585 865.849 765.645 865.842 765.703 865.849C768.324 866.139 770.488 868.901 771.635 871.016C773.645 874.715 776.217 877.981 779.351 880.813C779.469 880.922 779.577 880.985 779.673 881.002C779.803 881.028 779.93 880.943 779.956 880.814C779.96 880.795 779.961 880.774 779.96 880.754C779.63 874.94 779.774 869.035 779.732 863.116C779.723 861.567 779.605 856.072 781.493 855.447C781.874 855.32 782.288 855.523 782.416 855.901C782.424 855.927 782.432 855.953 782.438 855.98C782.689 857.128 782.812 858.247 782.806 859.338C782.764 866.285 782.611 873.215 782.484 880.158C782.47 881.067 782.726 881.151 783.251 880.406C785.658 876.986 788.12 873.498 790.636 869.942C791.58 868.607 794.646 864.682 795.459 868.422C795.84 870.177 795.607 871.802 794.76 873.3C793.096 876.243 790.555 879.869 787.807 881.259C786.054 882.145 784.949 883.526 783.069 884.302C782.773 884.425 782.592 884.722 782.62 885.037L784 901Z" fill="#492A70"/>
<path d="M706.059 872.339C706.138 876.227 706.368 882.631 706.75 891.556C706.874 894.472 706.667 897.62 706.127 901H703.095C703.722 891.602 703.307 882.888 702.731 871.957C703.956 871.84 705.066 871.968 706.059 872.339Z" fill="#492A70"/>
</g>
</svg>
