<svg width="220" height="225" viewBox="0 0 220 225" fill="none" xmlns="http://www.w3.org/2000/svg">
<path d="M29.5827 6.79537C29.0852 7.10146 28.7025 7.59885 28.5686 8.15364C28.4729 8.53626 28.4729 8.938 28.5686 9.32061L28.6834 9.58844L28.7982 9.85627C29.5444 11.5398 30.2907 13.2615 31.0178 14.9641L32.0893 17.4511L35.6292 25.6008C37.8679 30.7469 40.2788 36.2565 42.7089 41.6896C43.2255 42.8566 43.7613 44.0044 44.2779 45.1714L44.6414 45.9749L45.1007 46.9506C45.5599 47.9645 46 48.9784 46.4592 49.9923L46.6697 50.4897C46.9184 51.0636 47.1672 51.6376 47.4351 52.1924C49.1189 55.942 50.7836 59.7107 52.4483 63.4794C55.5289 70.4621 58.8583 77.8657 62.3216 85.4414C63.1061 87.1823 63.9097 88.904 64.7134 90.6258C65.6318 92.5963 66.5503 94.5858 67.4496 96.5754C68.4254 98.6989 69.4013 100.842 70.358 102.965C70.8746 102.659 71.3721 102.353 71.8696 102.047C71.0851 100.134 70.3389 98.2589 69.6118 96.4606C68.6933 94.1841 67.7749 91.9075 66.8756 89.631L65.0387 85.0205C63.9671 82.3805 62.8956 79.7405 61.805 77.1004L60.5612 74.0778C58.4756 69.0082 56.3899 63.9577 54.2852 58.9072L53.3476 56.6689L51.128 51.3315L48.0665 43.9088L47.9517 43.6218C46.0574 39.0305 44.1439 34.42 42.2114 29.8286C40.6041 26.0408 38.9968 22.2529 37.3895 18.4842C37.0068 17.585 36.6241 16.705 36.2415 15.8059L35.8014 14.8111C34.8255 12.5728 33.8688 10.3345 32.9312 8.07712C32.8164 7.69451 32.6251 7.35016 32.338 7.0632C32.2232 6.94841 32.0893 6.85276 31.9554 6.75711C31.764 6.64232 31.5727 6.5658 31.3431 6.50841C31.1517 6.45102 30.9604 6.43188 30.7882 6.43188C30.3863 6.43188 29.9845 6.54667 29.621 6.75711" fill="#D6C8B7"/>
<path d="M32.7208 15.4615C28.5304 16.6285 24.1869 14.1797 23.0197 9.99013C21.8525 5.80052 24.3017 1.45787 28.4921 0.2909C32.6826 -0.876069 37.0261 1.57265 38.1933 5.76226C39.3605 9.95187 36.9113 14.2945 32.7208 15.4615Z" fill="#F04C5A"/>
<path d="M210.843 22.3294C210.67 22.3294 210.517 22.3294 210.364 22.3868C209.962 22.4825 209.618 22.6738 209.331 22.9416C207.36 24.3573 205.351 25.7538 203.361 27.1503L202.481 27.7816C201.677 28.3364 200.893 28.8912 200.089 29.4651C196.721 31.8182 193.373 34.2095 190.024 36.5817C185.968 39.4513 181.931 42.3783 177.893 45.2862L177.645 45.4583L171.139 50.1645L166.451 53.5315L164.48 54.9471C160.041 58.1419 155.583 61.3368 151.163 64.5507L148.522 66.4829C146.207 68.1473 143.911 69.8308 141.615 71.5334L137.615 74.4795C135.645 75.9334 133.674 77.4065 131.684 78.8604C127.608 81.8448 122.997 85.2309 118.519 88.4258C117.18 89.3823 115.841 90.3579 114.501 91.3145L114.099 91.6014C111.153 93.7249 108.187 95.8676 105.221 97.9528L104.283 98.6032L103.231 99.3302C103.021 99.4832 102.848 99.7511 103.001 100.057C103.097 100.229 103.308 100.363 103.499 100.363C103.575 100.363 103.671 100.344 103.728 100.287C106.962 98.0293 110.196 95.8102 113.449 93.591L116.242 91.6971C118.692 90.0327 121.122 88.3684 123.571 86.704C126.862 84.4848 130.153 82.2657 133.463 80.0657C135.281 78.8413 137.099 77.6552 138.917 76.45C140.505 75.3978 142.093 74.3456 143.681 73.2934C150.627 68.6638 157.324 64.1298 163.638 59.8063C167.025 57.4724 170.431 55.1576 173.837 52.8428C174.353 52.4984 174.87 52.1349 175.387 51.7906L175.827 51.4845C176.745 50.8532 177.645 50.2219 178.582 49.6097L179.481 49.0166L180.209 48.5192C181.261 47.8114 182.313 47.1036 183.366 46.3957C188.302 43.0479 193.239 39.6235 197.85 36.4287L205.141 31.3591L207.36 29.8095C208.872 28.7382 210.403 27.6669 211.933 26.6338L212.182 26.4616L212.431 26.2894C212.737 26.0025 212.947 25.6773 213.062 25.2947C213.234 24.7399 213.177 24.1277 212.909 23.6112C212.641 23.0755 212.144 22.6738 211.57 22.5016C211.34 22.4251 211.13 22.3868 210.9 22.3868" fill="#D6C8B7"/>
<path d="M205.6 29.2738C208.547 32.4687 213.541 32.6791 216.736 29.733C219.931 26.7869 220.142 21.7938 217.195 18.599C214.249 15.4041 209.254 15.1937 206.059 18.1398C202.864 21.0859 202.653 26.079 205.6 29.2738Z" fill="#F04C5A"/>
<path d="M78.5668 74.6517C76.328 74.6517 74.0702 74.69 71.8315 74.7665C61.652 75.1109 52.6014 76.3926 44.1632 78.6883C37.9063 80.3909 31.9746 82.8014 26.5596 85.8814C25.3924 86.5319 24.1295 87.3162 22.8475 88.1771C19.4416 90.6832 16.1314 93.3998 13.9309 95.2172C13.2995 96.4989 12.668 97.9146 11.9218 99.6937L11.7687 100.057L11.52 100.689L11.6731 100.842C7.09994 115.993 4.00017 129.824 2.20155 143.139C1.37877 149.127 0.804737 155.077 0.517722 160.835C0.345513 163.896 0.268975 166.881 0.249841 169.693C0.211572 172.141 0.211572 175.049 0.383781 177.957C0.900409 186.891 3.2922 194.467 7.5209 200.474C16.5906 213.444 32.606 217.787 45.5409 220.121C53.7686 221.613 62.0155 222.493 69.0187 223.163C76.1558 223.832 83.1973 224.253 89.9708 224.387C91.6547 224.425 93.3385 224.445 95.0223 224.445C102.006 224.445 108.397 224.139 114.597 223.488C123.973 222.512 131.416 220.944 138.017 218.533C146.073 215.606 151.851 211.78 155.678 206.825C157.075 205.008 158.204 202.961 159.103 200.55C159.83 198.676 160.328 196.476 160.672 193.644C161.265 188.747 160.768 183.696 160.27 179.354C160.098 177.881 159.888 176.427 159.696 174.973L159.333 172.199C159.046 169.98 158.797 167.627 158.568 164.814C158.013 157.985 157.611 151.92 157.381 146.277C156.769 132.522 156.96 120.374 158.013 109.183C158.223 106.791 158.491 104.323 158.835 101.855C158.969 100.937 159.084 100.019 159.218 99.1198C159.256 98.0676 159.352 97.0728 159.524 96.1354C159.62 95.5615 159.735 94.9876 159.869 94.4137C159.142 93.725 158.414 93.0745 157.687 92.4241C156.903 91.7354 156.118 91.0467 155.372 90.3389C154.434 89.631 153.478 88.9423 152.502 88.2727L151.641 87.6988L151.124 87.3545C149.383 86.3979 147.623 85.5371 145.843 84.7527C141.404 82.7631 136.429 81.1561 130.65 79.7787C120.509 77.3683 110.33 76.4309 99.9398 75.6083C91.9799 74.977 84.9959 74.6709 78.6242 74.6709" fill="#C65031"/>
<path d="M72.8456 74.9195C62.647 75.2638 53.5965 76.5456 45.1965 78.8221C40.5851 80.0656 36.1268 81.73 31.9172 83.7578C32.2234 84.3318 32.5678 84.8866 32.9696 85.4031C33.4671 86.0153 34.022 86.5701 34.6343 87.0866C35.2083 87.5075 35.8015 87.8518 36.4329 88.1579C37.1218 88.4449 37.8489 88.6362 38.5951 88.7701C39.3605 88.8657 40.145 88.8657 40.9104 88.7701C41.8671 88.617 42.8047 88.3492 43.704 87.9666C44.7947 87.4692 45.8279 86.8379 46.7846 86.1109C48.2006 84.9822 49.4443 83.6813 50.5732 82.2848C51.1281 81.5578 51.6256 80.8309 52.1231 80.0848C52.4675 79.5491 53.099 79.243 53.7495 79.4152C54.247 79.5682 54.6106 79.9317 54.7445 80.4291C54.9933 81.2709 55.2994 82.1317 55.6247 82.9544C55.6247 82.9735 55.6247 82.9926 55.6438 83.0118C55.6438 83.0118 55.6438 82.9926 55.6438 82.9735C55.6438 82.9735 55.6438 83.0118 55.663 83.0309C56.3135 84.5231 57.0981 85.9196 58.0739 87.2205C58.7819 88.1196 59.5855 88.9422 60.4657 89.6692C61.2693 90.2814 62.1113 90.7979 63.0297 91.1997C63.7951 91.5058 64.5796 91.7162 65.3832 91.8501C66.206 91.9266 67.0096 91.9266 67.8324 91.8501C68.6743 91.7162 69.478 91.4866 70.2625 91.1805C71.2001 90.7597 72.0802 90.2431 72.9222 89.631C73.9363 88.8083 74.8547 87.8709 75.6775 86.8379C76.8447 85.2883 77.7823 83.5857 78.5477 81.8065C78.5477 81.7683 78.5859 81.73 78.5859 81.6917C78.739 81.3283 78.8921 81.0413 79.2556 80.8309C79.4852 80.6969 79.7149 80.6396 79.9636 80.6396C80.5759 80.6396 81.2073 81.0796 81.3604 81.6917C81.6474 82.9544 81.9918 84.1979 82.4702 85.4031C82.8338 86.2257 83.2739 87.0292 83.8096 87.7753C84.154 88.2153 84.5367 88.5979 84.9577 88.9423C85.3021 89.191 85.6656 89.4205 86.0483 89.5927C86.4884 89.7649 86.9285 89.8797 87.3877 89.9562C87.9618 90.0136 88.5358 90.0136 89.129 89.9562C90.0857 89.8031 91.0424 89.5162 91.9417 89.1527C93.8169 88.3301 95.5772 87.2014 97.2228 85.9579C100.093 83.7005 102.714 81.0796 105.03 78.2674C105.336 77.8847 105.967 77.77 106.426 77.9039C106.905 78.0378 107.307 78.4204 107.421 78.8987C107.823 80.3909 108.282 81.8639 108.876 83.2796C109.45 84.6187 110.158 85.9196 111.019 87.1057C111.535 87.7562 112.128 88.3492 112.76 88.8849C113.277 89.2483 113.812 89.5736 114.405 89.8414C114.999 90.071 115.611 90.224 116.242 90.3197C117.046 90.4153 117.85 90.3962 118.634 90.3197C120.184 90.0901 121.696 89.6118 123.131 89.0188C125.274 88.0814 127.321 86.9144 129.292 85.6518C131.512 84.217 133.674 82.6483 135.798 81.0604C135.817 81.0604 135.836 81.0413 135.855 81.0222C134.458 80.6204 133.023 80.2569 131.512 79.8935C121.428 77.5021 111.229 76.5456 100.801 75.723C92.8602 75.0917 85.8761 74.7856 79.4852 74.7856C77.2465 74.7856 74.9887 74.8238 72.75 74.9004" fill="#F3633D"/>
<path d="M100.17 87.2779C97.6821 89.3249 94.9458 91.238 91.8652 92.2328C89.2821 93.0745 86.2397 93.1893 83.8862 91.6206C81.8579 90.2623 80.5759 88.2345 79.6958 85.9962C79.2748 86.7231 78.8156 87.431 78.3181 88.1005C77.2083 89.5736 75.9837 90.8936 74.5295 92.0032C73.2857 92.9597 71.8698 93.7058 70.3773 94.1841C69.7459 94.3945 69.0762 94.5476 68.4065 94.6432C68.5404 94.8728 68.5978 95.1215 68.617 95.3702C68.6552 97.4745 68.7892 99.5981 69.0762 101.683C69.4397 104.209 70.0138 106.715 70.9896 109.068C70.9322 108.953 70.894 108.838 70.8366 108.723C71.3149 109.852 71.9081 110.943 72.6352 111.937C73.1135 112.53 73.6302 113.066 74.2233 113.544C74.74 113.927 75.2949 114.252 75.8689 114.52C76.5195 114.788 77.1892 114.96 77.8971 115.075C78.8156 115.17 79.7149 115.17 80.6142 115.075C80.6525 115.075 80.6716 115.075 80.6907 115.075C81.5901 114.941 82.4702 114.73 83.3313 114.405C83.3313 114.405 83.3504 114.405 83.3696 114.405C84.0201 114.099 84.6516 113.716 85.2447 113.296C85.9527 112.722 86.5841 112.071 87.1582 111.383C88.1723 110.005 88.9568 108.513 89.6265 106.963C90.8894 103.922 91.7121 100.746 92.8793 97.6467C93.0133 97.2832 93.1855 96.9963 93.5299 96.805C93.8552 96.6137 94.257 96.5563 94.6397 96.6519C95.0032 96.7476 95.3094 96.9963 95.5007 97.3215C95.6347 97.5319 95.6921 97.7806 95.6921 98.0485C95.96 100.918 96.0365 103.788 96.4192 106.638C96.6871 108.456 97.0506 110.254 97.7395 111.937C98.0265 112.549 98.3518 113.143 98.7536 113.697C99.0406 114.042 99.3467 114.367 99.6912 114.654C99.9973 114.864 100.323 115.075 100.667 115.228C101.069 115.381 101.452 115.457 101.872 115.553C102.466 115.61 103.059 115.61 103.652 115.553C104.609 115.4 105.546 115.17 106.446 114.826C107.115 114.52 107.747 114.156 108.359 113.716C109.029 113.162 109.622 112.549 110.177 111.861C111.248 110.426 112.071 108.819 112.779 107.155C112.779 107.212 112.741 107.25 112.722 107.308C112.76 107.193 112.817 107.097 112.856 106.982C112.856 106.982 112.798 107.116 112.779 107.174C112.817 107.116 112.836 107.04 112.856 106.982C113.678 104.974 114.386 102.927 115.19 100.918C115.955 99.005 116.778 97.0919 118.022 95.4467C118.251 95.1406 118.481 94.8919 118.883 94.7771C119.132 94.7197 119.4 94.7197 119.648 94.7771C120.127 94.911 120.509 95.2937 120.643 95.7719C120.911 96.6902 121.026 97.6659 121.122 98.6224C121.236 99.6554 121.275 100.708 121.332 101.741C121.447 104.036 121.523 106.351 121.81 108.628C121.81 108.666 121.81 108.704 121.81 108.742C121.81 108.781 121.81 108.819 121.81 108.857C121.81 108.857 121.81 108.876 121.81 108.896C121.81 108.896 121.81 108.896 121.81 108.915C121.81 108.915 121.81 108.934 121.81 108.953C122.04 110.483 122.365 111.995 122.939 113.43C123.226 114.061 123.552 114.673 123.954 115.247C124.26 115.591 124.566 115.916 124.929 116.223C125.274 116.452 125.618 116.663 126.001 116.854C126.479 117.026 126.958 117.141 127.436 117.217C128.067 117.275 128.718 117.275 129.349 117.217C129.809 117.141 130.249 117.026 130.689 116.854C131.167 116.624 131.646 116.356 132.066 116.031C132.66 115.553 133.176 115.017 133.655 114.424C134.592 113.2 135.319 111.842 135.932 110.426C137.845 105.854 138.706 100.956 139.548 96.0971C139.605 95.7528 139.912 95.4084 140.199 95.2363C140.543 95.045 140.945 94.9876 141.308 95.0832C141.959 95.2554 142.323 95.8293 142.361 96.4798C142.476 98.1059 142.495 99.7511 142.571 101.396C142.648 103.348 142.763 105.28 143.011 107.212C143.011 107.231 143.011 107.269 143.011 107.289C143.011 107.289 143.011 107.289 143.011 107.269C143.011 107.327 143.011 107.365 143.03 107.422V107.442V107.48C143.318 109.45 143.738 111.44 144.485 113.315C144.848 114.156 145.288 114.941 145.824 115.687C146.169 116.108 146.551 116.49 146.972 116.835C147.355 117.103 147.757 117.351 148.197 117.543C148.694 117.734 149.23 117.868 149.766 117.963C150.282 118.021 150.799 118.021 151.316 117.963C151.832 117.868 152.311 117.734 152.789 117.562C153.363 117.294 153.88 116.988 154.377 116.605C155.162 115.974 155.831 115.266 156.444 114.482C157.343 113.276 158.108 111.976 158.778 110.636C158.816 110.177 158.855 109.718 158.893 109.259C159.103 106.868 159.39 104.4 159.716 101.913C159.83 100.995 159.964 100.095 160.098 99.1772C160.137 98.1824 160.232 97.1685 160.404 96.1928C160.424 96.0398 160.462 95.8867 160.481 95.7337C159.563 96.4224 158.548 96.9772 157.42 97.2259C154.607 97.8763 151.737 97.0537 149.23 95.7719C146.36 94.2989 143.796 92.2328 141.5 90.0327C139.625 88.2345 137.883 86.3023 136.276 84.2744C133.482 86.3405 130.612 88.3684 127.57 90.0327C124.7 91.6014 121.562 92.9789 118.271 93.2084C116.874 93.3041 115.4 93.1893 114.08 92.7302C112.645 92.2328 111.325 91.4484 110.215 90.3962C108.933 89.191 107.9 87.7179 107.115 86.1492C106.465 84.8675 105.929 83.5283 105.451 82.17C103.805 84.0066 102.045 85.7283 100.131 87.2779" fill="#F3633D"/>
<path d="M51.9318 85.1736C50.535 86.7614 48.966 88.2345 47.1865 89.3632C45.7132 90.3006 44.0676 91.0658 42.3647 91.4102C40.7574 91.7354 39.1501 91.7928 37.5428 91.4676C36.1077 91.1806 34.6726 90.5875 33.4672 89.7267C32.1469 88.7701 31.018 87.6414 30.0995 86.264C29.8316 85.8623 29.602 85.4605 29.3724 85.0397C28.7793 85.3457 28.1861 85.671 27.6121 85.9962C26.3683 86.704 25.1246 87.4692 23.9 88.2919C21.6804 89.9371 19.5182 91.6397 17.3752 93.3806C16.916 96.9389 16.6481 100.555 17.0882 104.113C17.2795 105.433 17.5857 106.734 18.0832 107.977C18.351 108.57 18.6763 109.125 19.059 109.661C19.3843 110.082 19.767 110.445 20.1688 110.789C20.6663 111.153 21.2212 111.44 21.7761 111.708C22.2927 111.899 22.8285 112.052 23.3834 112.148C23.8617 112.186 24.3401 112.186 24.8184 112.148C25.3542 112.052 25.8708 111.918 26.3875 111.708C27.0763 111.402 27.7269 111 28.32 110.541C29.4107 109.661 30.3483 108.647 31.2093 107.556C33.1419 104.993 34.6152 102.123 35.8781 99.1772C35.8207 99.292 35.7824 99.4068 35.725 99.5215C36.3565 97.972 36.9496 96.4224 37.4471 94.8154C37.6767 94.0693 38.4421 93.6102 39.2075 93.8206C39.8198 93.9928 40.2599 94.5667 40.2599 95.198C40.2599 96.7476 40.3364 98.2781 40.5278 99.8085C40.7956 101.645 41.2166 103.424 41.9246 105.127C42.3455 106.083 42.8621 106.982 43.4744 107.824C43.9528 108.417 44.5077 108.972 45.1009 109.469C45.6175 109.833 46.1533 110.158 46.7273 110.426C47.4161 110.713 48.1241 110.904 48.8703 111.019C49.6166 111.096 50.382 111.076 51.1473 110.981C52.1423 110.828 53.0799 110.541 54.0175 110.158C55.1847 109.642 56.2945 108.972 57.3277 108.207C58.8011 107.04 60.0831 105.701 61.2311 104.228C61.1546 104.323 61.0781 104.419 61.0015 104.515C62.4175 102.659 63.5847 100.631 64.5222 98.4885C64.5222 98.4502 64.5414 98.412 64.5605 98.3928C64.5605 98.412 64.5605 98.4502 64.5414 98.4694C64.5605 98.412 64.5796 98.3546 64.5988 98.2972C65.0389 97.2067 65.4216 96.1163 65.7468 95.0067C65.766 94.9111 65.8042 94.8345 65.8425 94.758C64.35 94.6432 62.915 94.2797 61.5373 93.6676C60.1022 93.0171 58.8011 92.118 57.653 91.0467C55.5482 89.0571 54.0175 86.5701 52.9268 83.9109C52.5824 84.351 52.238 84.7718 51.8744 85.1927" fill="#F3633D"/>
<path d="M12.9742 99.8085C12.8403 100.134 12.7064 100.478 12.5724 100.803C12.6107 100.842 12.6681 100.88 12.7064 100.918C11.2522 105.758 9.93188 110.483 8.74555 115.132C8.59248 117.332 8.24806 119.532 8.03758 121.751C7.80797 124.123 7.67403 126.496 7.96104 128.868C7.96104 128.811 7.96104 128.753 7.92277 128.696C7.92277 128.753 7.94191 128.83 7.96104 128.887C7.96104 128.944 7.96104 129.021 7.98018 129.078C7.98018 129.021 7.98018 128.964 7.98018 128.906C8.13325 129.882 8.36286 130.838 8.72642 131.776C8.97516 132.35 9.28131 132.885 9.64487 133.402C9.98928 133.804 10.3528 134.186 10.7738 134.531C11.2522 134.856 11.7305 135.143 12.2663 135.391C12.8403 135.621 13.4143 135.793 14.0266 135.889C14.505 135.927 14.9642 135.946 15.4234 135.889C15.8444 135.812 16.2462 135.698 16.648 135.564C17.1838 135.334 17.6622 135.028 18.1405 134.684C18.925 134.052 19.6139 133.306 20.2453 132.522C22.3883 129.691 23.7852 126.419 25.335 123.263C25.6029 122.689 26.3683 122.44 26.9615 122.612C27.5929 122.784 27.9756 123.358 28.0138 123.99C28.0521 125.08 28.1478 126.151 28.2817 127.223C28.5687 129.155 29.0088 131.049 29.7359 132.885C30.2143 133.995 30.7883 135.028 31.4963 135.984C32.0129 136.616 32.5678 137.209 33.1993 137.725C33.7733 138.146 34.3665 138.51 35.017 138.797C35.6485 139.045 36.3182 139.218 36.9879 139.332C37.7724 139.428 38.5569 139.409 39.3414 139.332C40.3938 139.16 41.4079 138.854 42.3837 138.452C43.6083 137.898 44.7373 137.19 45.7897 136.386C47.263 135.2 48.5833 133.823 49.7505 132.331C51.0899 130.551 52.2379 128.619 53.1947 126.61C53.4625 126.037 54.2279 125.788 54.8019 125.96C55.2994 126.094 55.663 126.477 55.8161 126.955C56.1413 128.026 56.524 129.078 56.945 130.111C56.945 130.131 56.945 130.15 56.9641 130.169C56.9641 130.169 56.9641 130.15 56.9641 130.131C56.9641 130.169 57.0024 130.226 57.0215 130.264C57.0215 130.245 57.0024 130.207 56.9833 130.188C57.8252 132.139 58.8584 134.014 60.1404 135.736C60.9441 136.75 61.8434 137.668 62.8384 138.471C63.5272 138.988 64.2735 139.428 65.058 139.772C65.7085 140.021 66.3591 140.212 67.0288 140.308C67.6028 140.365 68.196 140.365 68.77 140.308C69.4589 140.193 70.1094 140.021 70.76 139.772C71.5254 139.428 72.2333 138.988 72.903 138.51C73.8598 137.745 74.6825 136.845 75.4479 135.889C76.7873 134.091 77.8397 132.12 78.7199 130.054C78.6816 130.169 78.6242 130.284 78.586 130.398C78.7582 130.016 78.9112 129.614 79.0643 129.212C79.1982 128.849 79.3705 128.562 79.7149 128.351C79.9445 128.217 80.1932 128.16 80.442 128.16C81.0734 128.16 81.6666 128.6 81.8197 129.212C82.3363 131.336 82.9869 133.421 83.8288 135.411C84.5176 136.941 85.3021 138.414 86.3162 139.753C86.8711 140.442 87.4834 141.073 88.1723 141.647C88.6889 142.011 89.2247 142.336 89.7987 142.604C90.2388 142.776 90.7171 142.891 91.1955 142.986C91.6739 143.025 92.1522 143.025 92.6306 142.986C93.2046 142.891 93.7404 142.738 94.2761 142.527C95.0415 142.183 95.7495 141.743 96.4192 141.265C97.5481 140.346 98.5431 139.294 99.4424 138.165C101.318 135.678 102.753 132.904 103.958 130.054C104.092 129.729 104.494 129.48 104.8 129.404C105.049 129.346 105.317 129.346 105.565 129.404C106.082 129.557 106.388 129.92 106.56 130.398C107.766 133.536 108.187 136.941 109.45 140.078C109.813 140.92 110.234 141.743 110.77 142.489C111.133 142.929 111.516 143.312 111.956 143.675C112.339 143.943 112.741 144.192 113.181 144.383C113.717 144.574 114.291 144.727 114.846 144.823C115.573 144.899 116.3 144.899 117.027 144.823C117.62 144.708 118.194 144.555 118.768 144.345C119.38 144.058 119.974 143.713 120.528 143.312C121.294 142.699 121.964 141.992 122.576 141.226C123.705 139.715 124.585 138.051 125.331 136.31C125.331 136.31 125.331 136.31 125.331 136.329C125.331 136.31 125.35 136.271 125.369 136.233C125.369 136.195 125.389 136.176 125.408 136.157V136.195C125.408 136.195 125.408 136.157 125.408 136.138C126.116 134.378 126.69 132.56 127.168 130.724C127.34 130.111 127.914 129.671 128.546 129.671C128.928 129.671 129.292 129.824 129.56 130.092C129.732 130.264 129.866 130.475 129.923 130.724C130.268 132.962 130.765 135.162 131.626 137.247C132.066 138.204 132.564 139.122 133.195 139.983C133.597 140.48 134.037 140.939 134.554 141.36C134.917 141.628 135.281 141.838 135.664 142.03C136.046 142.183 136.429 142.278 136.831 142.355C137.194 142.393 137.577 142.393 137.941 142.355C138.381 142.278 138.821 142.164 139.242 141.992C139.816 141.743 140.333 141.418 140.83 141.054C141.538 140.461 142.169 139.811 142.743 139.103C143.738 137.802 144.523 136.367 145.154 134.875C145.671 133.593 146.092 132.292 146.417 130.934C146.723 129.748 148.445 129.499 149.039 130.59C151.009 134.205 152.521 138.089 155.047 141.379C155.621 142.106 156.271 142.776 156.999 143.35C157.362 143.618 157.726 143.847 158.127 144.058C157.745 134.224 157.802 125.195 158.3 116.739C156.386 119.054 153.727 120.91 150.646 120.91C149 120.91 147.297 120.508 145.901 119.609C144.523 118.729 143.413 117.504 142.609 116.069C141.079 113.353 140.428 110.235 140.065 107.155C139.663 108.532 139.204 109.871 138.649 111.21C137.998 112.76 137.252 114.309 136.238 115.668C135.262 116.988 134.133 118.212 132.698 119.016C131.244 119.819 129.617 120.202 127.972 120.125C126.441 120.049 124.872 119.704 123.609 118.824C122.423 118.002 121.466 116.93 120.796 115.649C119.342 112.875 118.902 109.68 118.672 106.581C118.5 104.591 118.481 102.582 118.347 100.593C118.29 100.727 118.213 100.88 118.156 101.033C118.156 101.033 118.156 101.071 118.137 101.071V101.09C118.137 101.09 118.137 101.09 118.137 101.071C118.137 101.109 118.098 101.128 118.098 101.167C117.429 102.812 116.836 104.495 116.185 106.16C115.515 107.901 114.826 109.642 113.908 111.268C113.028 112.856 111.937 114.424 110.521 115.591C109.775 116.203 108.971 116.777 108.091 117.198C107.211 117.6 106.293 117.925 105.336 118.136C103.69 118.499 101.892 118.652 100.246 118.136C98.8875 117.715 97.6246 116.93 96.7253 115.821C96.247 115.228 95.8069 114.616 95.4625 113.927C95.1372 113.257 94.831 112.549 94.6014 111.842C94.1039 110.369 93.7978 108.838 93.5873 107.308C93.4916 106.581 93.3959 105.873 93.3194 105.146C93.2811 105.261 93.2429 105.375 93.1855 105.509C92.3244 107.92 91.3294 110.407 89.8178 112.492C88.6889 114.061 87.3495 115.476 85.6465 116.433C83.8479 117.447 81.8197 117.963 79.7723 118.059C77.9737 118.136 76.1942 117.849 74.5295 117.122C73.1135 116.51 71.8124 115.515 70.8174 114.348C68.6361 111.765 67.4115 108.532 66.7227 105.261C66.4739 104.094 66.2826 102.927 66.1295 101.741C65.7659 102.429 65.4024 103.099 65.0006 103.749C63.6994 105.835 62.1687 107.805 60.3318 109.431C59.2029 110.445 57.9591 111.382 56.6197 112.09C55.3951 112.76 54.094 113.315 52.7354 113.621C51.4917 113.908 50.1714 114.061 48.8894 113.927C47.55 113.774 46.2872 113.468 45.0626 112.856C42.556 111.612 40.6425 109.336 39.4945 106.829C38.7482 105.203 38.2125 103.52 37.8872 101.741C37.8872 101.702 37.8872 101.683 37.8872 101.645C37.4088 102.678 36.9113 103.711 36.3756 104.706C35.4954 106.37 34.4813 107.939 33.3332 109.45C32.2617 110.847 31.0562 112.109 29.6211 113.123C28.3583 114.042 26.8849 114.749 25.3159 114.96C24.3975 115.094 23.4981 115.094 22.5606 114.922C21.7186 114.769 20.915 114.501 20.1496 114.118C18.5997 113.372 17.2795 112.282 16.3419 110.828C15.4234 109.431 14.8303 107.786 14.505 106.141C13.9118 103.214 13.8736 100.191 14.084 97.2258C13.7014 98.0867 13.3378 98.9285 12.9742 99.7893M125.465 136.118C125.465 136.118 125.465 136.138 125.465 136.157C125.465 136.157 125.465 136.157 125.465 136.176C125.465 136.176 125.465 136.214 125.465 136.233C125.465 136.233 125.465 136.195 125.465 136.176C125.465 136.176 125.465 136.176 125.465 136.157C125.465 136.157 125.465 136.138 125.465 136.118Z" fill="#F3633D"/>
<path d="M25.2777 129.824C24.3592 131.527 23.3642 133.191 22.1205 134.703C21.5465 135.411 20.915 136.099 20.2071 136.654C19.5373 137.19 18.8485 137.687 18.064 138.031C17.1456 138.414 16.2654 138.682 15.2704 138.758C14.3711 138.816 13.4335 138.739 12.5724 138.491C11.5966 138.223 10.6016 137.821 9.74056 137.266C9.03259 136.788 8.32462 136.252 7.76972 135.583C7.19569 134.894 6.65993 134.148 6.27724 133.325C5.93282 132.541 5.62667 131.718 5.43533 130.877C5.39706 130.724 5.37793 130.571 5.33966 130.417C4.51688 134.722 3.80891 138.988 3.23488 143.235C2.4121 149.223 1.83807 155.173 1.55106 160.931C1.53192 161.256 1.51279 161.581 1.49365 161.906C1.685 162.347 1.91461 162.748 2.18249 163.131C2.4121 163.418 2.67998 163.667 2.967 163.915C3.27315 164.126 3.5793 164.317 3.92372 164.47C4.47861 164.68 5.05264 164.814 5.62667 164.929C6.12417 164.987 6.60253 164.987 7.10002 164.929C7.61665 164.833 8.09501 164.7 8.57336 164.527C9.28134 164.202 9.9319 163.8 10.5633 163.341C11.6157 162.5 12.5533 161.505 13.3952 160.433C14.792 158.578 15.9401 156.55 16.8777 154.426C17.0308 154.063 17.1838 153.699 17.3178 153.336C17.4517 152.972 17.6239 152.686 17.9683 152.494C18.2936 152.303 18.6954 152.246 19.0781 152.341C19.7287 152.513 20.0922 153.087 20.1305 153.719C20.2453 155.823 20.3793 157.908 20.6471 159.993C20.6471 159.955 20.6471 159.936 20.6471 159.898C20.6471 159.955 20.6471 160.013 20.6663 160.07C20.6663 160.07 20.6663 160.07 20.6663 160.032C20.6663 160.032 20.6663 159.993 20.6663 159.974C20.6663 159.974 20.6663 160.013 20.6663 160.032C20.6663 160.051 20.6663 160.089 20.6663 160.108V160.146C20.6663 160.185 20.6663 160.223 20.6663 160.261C20.9533 162.213 21.3934 164.164 22.1205 166C22.5223 166.919 23.0007 167.799 23.5938 168.621C24.0722 169.195 24.5697 169.712 25.1629 170.19C25.7177 170.592 26.2918 170.917 26.9041 171.204C27.7651 171.548 28.6644 171.778 29.5829 171.931C30.6353 172.046 31.7068 172.084 32.7783 171.969C33.6585 171.835 34.5196 171.625 35.3806 171.3C36.2416 170.917 37.0453 170.439 37.8107 169.865C38.9779 168.947 39.992 167.856 40.9104 166.708C43.1109 163.839 44.8138 160.625 46.8229 157.621C47.1865 157.086 47.7797 156.779 48.4494 156.971C48.966 157.105 49.2721 157.487 49.4444 157.966C50.6307 161.237 51.3578 164.661 52.6972 167.875C53.1756 168.966 53.7496 170.018 54.4576 170.994C54.8976 171.529 55.376 172.027 55.9118 172.467C56.4093 172.83 56.9259 173.117 57.4808 173.385C58.1696 173.653 58.8585 173.825 59.5664 173.94C60.5997 174.054 61.6329 174.054 62.6662 173.94C63.6612 173.787 64.6562 173.519 65.5938 173.136C66.6079 172.658 67.5454 172.084 68.4448 171.414C69.7268 170.381 70.8366 169.195 71.8698 167.894C74.0894 164.948 75.7732 161.639 77.3231 158.291C77.591 157.717 78.3755 157.468 78.9495 157.64C79.3131 157.736 79.6192 157.985 79.8106 158.291C79.9445 158.52 80.0019 158.75 80.0019 159.018C80.021 159.209 80.0402 159.4 80.0593 159.573L80.0211 159.19C80.3272 161.39 80.8247 163.533 81.6475 165.58C81.6475 165.618 81.6857 165.656 81.6857 165.694C81.6857 165.675 81.6857 165.656 81.6857 165.637C81.724 165.694 81.7431 165.771 81.7623 165.828C82.2789 166.995 82.9103 168.086 83.6757 169.119C84.288 169.884 84.9577 170.573 85.7231 171.204C86.3545 171.682 87.0242 172.065 87.7513 172.409C88.4976 172.715 89.2629 172.926 90.0666 173.041C90.8128 173.098 91.5399 173.098 92.2862 173.041C93.109 172.907 93.9317 172.677 94.6971 172.39C95.673 171.95 96.5914 171.414 97.4333 170.783C98.4857 169.922 99.4424 168.947 100.284 167.894C101.413 166.383 102.332 164.738 103.097 163.016C103.097 162.997 103.116 162.959 103.135 162.94C103.499 162.06 103.805 161.16 104.092 160.242C104.283 159.63 104.819 159.19 105.47 159.19C106.12 159.19 106.675 159.63 106.847 160.242C107.651 162.997 108.378 165.79 109.45 168.449C110.081 169.941 110.827 171.376 111.784 172.677C112.32 173.347 112.913 173.959 113.583 174.494C114.118 174.896 114.673 175.221 115.286 175.508C115.917 175.738 116.549 175.91 117.218 176.025C117.926 176.101 118.653 176.121 119.361 176.025C120.088 175.91 120.796 175.7 121.466 175.432C122.404 175.011 123.265 174.494 124.087 173.882C125.331 172.887 126.441 171.759 127.417 170.496C128.737 168.755 129.828 166.88 130.689 164.891C131.244 163.494 131.703 162.06 131.933 160.586C131.99 160.242 132.296 159.898 132.583 159.726C132.908 159.534 133.31 159.477 133.693 159.592C134.056 159.687 134.363 159.936 134.554 160.242C134.688 160.472 134.745 160.701 134.745 160.969C134.803 161.543 134.879 162.136 134.956 162.71C135.243 164.776 135.683 166.823 136.467 168.755C136.467 168.774 136.467 168.794 136.487 168.813C136.487 168.813 136.487 168.774 136.487 168.755C136.487 168.755 136.487 168.794 136.487 168.813C136.812 169.54 137.195 170.247 137.654 170.898C137.922 171.223 138.209 171.529 138.534 171.816C138.783 172.007 139.051 172.18 139.357 172.314C139.605 172.409 139.854 172.467 140.122 172.524C140.447 172.543 140.773 172.543 141.079 172.524C141.519 172.447 141.921 172.333 142.342 172.18C142.342 172.18 142.38 172.18 142.399 172.161C142.399 172.161 142.399 172.161 142.38 172.161C142.38 172.161 142.418 172.161 142.437 172.141C143.088 171.835 143.719 171.453 144.293 171.013C145.441 170.094 146.436 169.023 147.336 167.875C148.828 165.905 150.034 163.743 151.01 161.466C151.01 161.447 151.01 161.409 151.048 161.39C151.43 160.453 151.775 159.496 152.062 158.52C152.253 157.908 152.789 157.468 153.44 157.468C153.956 157.468 154.415 157.755 154.683 158.176C156.31 160.778 157.707 163.533 159.563 166C159.543 165.675 159.505 165.331 159.486 164.987C158.95 158.463 158.568 152.647 158.338 147.233C156.444 146.736 154.817 145.454 153.554 144C151.258 141.36 149.766 138.242 148.235 135.162C147.374 137.496 146.188 139.715 144.542 141.59C142.82 143.56 140.428 145.205 137.711 145.282C136.467 145.32 135.243 145.033 134.133 144.459C132.966 143.847 131.952 142.948 131.129 141.915C129.885 140.308 129.005 138.491 128.374 136.558C127.417 139.045 126.192 141.437 124.489 143.465C123.303 144.899 121.849 146.124 120.127 146.889C118.213 147.731 116.147 147.941 114.099 147.578C112.358 147.272 110.674 146.487 109.431 145.205C108.206 143.962 107.364 142.451 106.733 140.825C105.967 138.854 105.508 136.807 104.972 134.76C104.456 135.793 103.882 136.807 103.231 137.783C102.179 139.409 101.011 140.978 99.5955 142.317C98.4666 143.388 97.1846 144.383 95.7495 145.014C94.4484 145.569 93.0707 145.971 91.6356 145.894C90.2388 145.837 88.8803 145.454 87.6557 144.746C86.3354 143.981 85.1873 142.929 84.2497 141.743C83.0634 140.231 82.1067 138.605 81.3413 136.826C80.9204 135.831 80.5377 134.818 80.1933 133.804C79.7532 134.645 79.2748 135.487 78.7391 136.291C77.7441 137.783 76.596 139.237 75.1992 140.385C73.9363 141.418 72.5395 142.298 70.9705 142.795C69.6502 143.216 68.2534 143.35 66.8949 143.197C65.3641 143.005 63.8717 142.527 62.5514 141.724C61.1928 140.901 59.93 139.868 58.8776 138.682C56.8493 136.386 55.3569 133.708 54.2088 130.896C53.1947 132.637 51.9892 134.282 50.6498 135.774C48.4302 138.242 45.7132 140.346 42.5751 141.494C41.2548 141.972 39.8389 142.278 38.423 142.317C37.1027 142.336 35.725 142.164 34.4813 141.685C33.1227 141.169 31.8981 140.461 30.8075 139.466C29.6786 138.452 28.7218 137.19 27.9947 135.851C26.8467 133.746 26.1387 131.451 25.6986 129.097C25.5647 129.365 25.4116 129.633 25.2777 129.92" fill="#F3633D"/>
<path d="M16.6862 160.759C15.4998 162.5 14.1604 164.145 12.5149 165.446C10.9267 166.708 9.07069 167.646 7.02331 167.818C6.02833 167.894 4.97594 167.78 4.00009 167.512C3.21558 167.282 2.3928 166.976 1.7231 166.517C1.58916 166.44 1.47435 166.345 1.35954 166.249C1.32128 167.435 1.30214 168.602 1.30214 169.769C1.28301 172.218 1.26387 175.126 1.43608 178.034C1.87617 185.552 3.65567 192.133 6.71716 197.623C7.02331 197.623 7.32946 197.623 7.63561 197.585C8.40099 197.47 9.14723 197.241 9.87433 196.973C10.6588 196.609 11.3668 196.169 12.0556 195.653C13.0315 194.869 13.8925 193.969 14.6771 192.994C15.806 191.463 16.7244 189.799 17.4707 188.058C17.5663 187.809 17.6812 187.542 17.7768 187.293C17.9108 186.929 18.083 186.642 18.4465 186.432C18.7718 186.241 19.1736 186.183 19.5372 186.298C19.9007 186.394 20.2069 186.623 20.3982 186.948C20.5322 187.178 20.5896 187.408 20.5896 187.675C20.6278 187.905 20.647 188.135 20.6661 188.364C20.9914 190.583 21.5272 192.764 22.3691 194.849C22.9622 196.246 23.7085 197.566 24.6269 198.79C25.2966 199.632 26.0429 200.397 26.8848 201.086C27.6502 201.66 28.4729 202.157 29.3531 202.559C30.2333 202.923 31.1326 203.171 32.0702 203.324C33.046 203.439 34.0219 203.439 34.9977 203.324C36.1267 203.152 37.1982 202.827 38.2506 202.406C39.4752 201.851 40.6041 201.163 41.6565 200.359C42.9768 199.307 44.144 198.083 45.1772 196.762C46.2296 195.385 47.1289 193.893 47.9326 192.362C48.5066 191.272 50.2861 191.521 50.554 192.707C50.9941 194.601 51.549 196.476 52.2952 198.274C52.2952 198.293 52.3143 198.331 52.3335 198.35C53.0797 200.11 53.9982 201.775 55.1462 203.305C55.9307 204.3 56.8109 205.218 57.8059 206.003C58.5139 206.538 59.2792 206.978 60.0829 207.361C60.8865 207.686 61.7284 207.935 62.5895 208.069C63.4123 208.164 64.2542 208.164 65.077 208.069C65.9571 207.916 66.8182 207.686 67.641 207.361C67.6601 207.361 67.6792 207.342 67.6984 207.323C68.7316 206.863 69.6883 206.29 70.5876 205.62C71.8697 204.606 72.9986 203.42 74.0127 202.138C75.4669 200.187 76.6341 198.083 77.61 195.863C77.763 195.481 77.9161 195.117 78.05 194.754C78.184 194.39 78.3562 194.103 78.7006 193.893C78.9302 193.759 79.1598 193.702 79.4277 193.702C80.0974 193.702 80.5758 194.142 80.8054 194.754C81.0733 195.462 81.3412 196.189 81.6282 196.896C81.6282 196.896 81.6282 196.877 81.6282 196.858C81.6282 196.858 81.6282 196.877 81.6282 196.896C81.6282 196.935 81.6664 196.992 81.6856 197.03C81.6856 197.03 81.6856 197.03 81.6856 197.011V197.049C81.6856 197.049 81.6856 197.049 81.6856 197.03C82.6997 199.364 83.886 201.641 85.4168 203.669C86.2396 204.702 87.1389 205.658 88.153 206.5C88.8227 207.017 89.5498 207.457 90.3343 207.82C90.9849 208.088 91.6546 208.279 92.3434 208.394C93.0131 208.47 93.6828 208.451 94.3525 208.394C95.1562 208.26 95.9407 208.03 96.6869 207.724C97.6436 207.284 98.5238 206.73 99.3657 206.117C100.935 204.874 102.293 203.42 103.518 201.851C105.221 199.594 106.656 197.126 107.938 194.601C108.225 194.027 108.971 193.778 109.564 193.95C109.813 194.008 110.024 194.142 110.196 194.314C110.368 194.486 110.502 194.696 110.559 194.945C110.559 194.983 110.598 195.002 110.598 195.041C110.598 194.983 110.559 194.945 110.54 194.888C111.439 196.973 112.492 198.943 113.85 200.78C114.616 201.736 115.477 202.636 116.434 203.401C117.142 203.917 117.888 204.376 118.711 204.721C119.399 204.989 120.088 205.18 120.815 205.295C121.581 205.371 122.346 205.371 123.111 205.295C124.011 205.161 124.891 204.893 125.752 204.549C126.938 204.032 128.01 203.363 129.043 202.578C130.421 201.469 131.645 200.187 132.736 198.79C134.229 196.839 135.434 194.696 136.429 192.439C136.965 191.157 137.443 189.837 137.826 188.498C137.998 187.886 138.553 187.446 139.203 187.446C139.567 187.446 139.95 187.599 140.218 187.867C140.39 188.039 140.524 188.249 140.581 188.498C141.385 190.296 142.456 191.961 143.643 193.51C143.566 193.415 143.49 193.319 143.413 193.223C145.059 195.347 146.972 197.279 149.077 198.982L149.134 199.02C150.608 200.149 152.196 201.182 153.918 201.947C154.932 202.368 155.965 202.693 157.018 202.846C157.592 202.903 158.166 202.903 158.721 202.846C158.797 202.846 158.874 202.827 158.931 202.808C159.275 202.1 159.582 201.354 159.888 200.55C160.615 198.656 161.112 196.456 161.457 193.644C162.05 188.689 161.552 183.658 161.055 179.334C160.883 177.861 160.691 176.408 160.481 174.934L160.117 172.16C160.041 171.606 159.964 171.032 159.907 170.439C159.295 169.941 158.74 169.406 158.223 168.813C156.405 166.747 155.028 164.393 153.65 162.06C153.573 162.251 153.497 162.442 153.42 162.633C152.138 165.675 150.416 168.602 148.158 171.032C147.202 172.065 146.149 173.021 144.944 173.787C143.949 174.418 142.82 174.973 141.653 175.145C141.04 175.241 140.466 175.298 139.835 175.221C139.165 175.145 138.591 174.992 137.979 174.724C136.793 174.207 135.855 173.27 135.109 172.237C134.152 170.898 133.501 169.329 133.042 167.76C132.947 167.473 132.87 167.187 132.793 166.88C132.277 168.009 131.665 169.119 130.995 170.171C129.828 171.969 128.488 173.691 126.862 175.107C125.312 176.465 123.571 177.651 121.6 178.282C119.686 178.894 117.601 179.009 115.63 178.512C113.812 178.053 112.128 177.115 110.789 175.814C109.469 174.533 108.397 172.964 107.574 171.319C106.56 169.291 105.833 167.148 105.183 164.987C104.781 165.867 104.302 166.727 103.805 167.55C102.848 169.08 101.758 170.534 100.437 171.778C99.2892 172.849 97.988 173.844 96.5721 174.533C95.1753 175.202 93.7594 175.642 92.2286 175.814C90.8509 175.967 89.435 175.872 88.0956 175.508C85.0915 174.686 82.6232 172.696 80.8628 170.19C79.4277 168.143 78.4901 165.847 77.8778 163.456C77.6291 163.915 77.3803 164.374 77.1316 164.833C75.0651 168.507 72.5011 172.141 68.923 174.456C67.1626 175.604 65.1918 176.388 63.1061 176.675C61.9772 176.828 60.81 176.886 59.6619 176.771C58.7435 176.656 57.8059 176.522 56.9257 176.197C55.2993 175.585 53.8068 174.647 52.6588 173.327C51.5298 172.007 50.6879 170.534 50.0182 168.966C49.0041 166.574 48.3344 164.068 47.569 161.6C46.708 162.997 45.8661 164.413 44.9476 165.79C42.8046 169.023 40.2597 172.218 36.605 173.787C34.6342 174.628 32.472 174.992 30.329 174.82C28.3007 174.647 26.2725 174.207 24.5121 173.174C22.9814 172.256 21.6802 171.013 20.7044 169.52C19.7477 168.047 19.0588 166.364 18.5996 164.68C18.1021 162.863 17.796 160.988 17.5855 159.113C17.2602 159.649 16.9349 160.185 16.5714 160.701" fill="#F3633D"/>
<path d="M140.773 188.709C140.773 188.709 140.735 188.632 140.715 188.594C140.715 188.632 140.754 188.67 140.773 188.709Z" fill="#F3633D"/>
<path d="M136.62 192.325C136.62 192.325 136.659 192.229 136.678 192.19C136.659 192.229 136.64 192.286 136.62 192.325Z" fill="#F3633D"/>
<path d="M17.3176 194.237C16.2078 195.73 14.9641 197.069 13.4716 198.159C11.96 199.269 10.2379 200.053 8.42017 200.359C8.45843 200.417 8.51584 200.493 8.55411 200.55C17.6047 213.502 33.601 217.845 46.5549 220.178C54.821 221.671 63.0679 222.551 70.0137 223.22C77.0742 223.89 84.1157 224.311 90.9658 224.445C92.6496 224.483 94.3334 224.502 96.0173 224.502C103.02 224.502 109.411 224.196 115.592 223.545C124.987 222.57 132.43 220.982 139.012 218.61C147.068 215.683 152.827 211.857 156.654 206.902C156.922 206.557 157.19 206.194 157.439 205.811C154.779 205.601 152.234 204.491 150.014 203.095C147.336 201.392 144.906 199.269 142.839 196.896C141.806 195.71 140.83 194.448 139.969 193.128C139.854 192.936 139.739 192.764 139.624 192.573C139.491 192.936 139.337 193.3 139.184 193.644C138.4 195.443 137.501 197.203 136.391 198.829C135.357 200.378 134.19 201.87 132.851 203.171C131.626 204.357 130.287 205.467 128.794 206.309C127.436 207.074 125.963 207.724 124.432 208.011C122.863 208.298 121.294 208.337 119.744 208.011C118.194 207.686 116.682 207.017 115.4 206.098C113.812 204.95 112.473 203.573 111.325 201.985C110.521 200.895 109.832 199.728 109.22 198.523C108.397 199.977 107.517 201.392 106.522 202.731C105.297 204.415 103.958 206.022 102.408 207.399C99.9207 209.58 96.84 211.378 93.4341 211.321C91.8268 211.321 90.277 210.919 88.8419 210.231C87.3685 209.504 86.0291 208.49 84.8811 207.304C82.5275 204.836 80.8054 201.89 79.4469 198.79C78.8155 200.091 78.0884 201.354 77.2656 202.559C76.1941 204.109 74.9886 205.601 73.5918 206.864C72.3672 207.954 71.0087 208.949 69.5162 209.637C68.0811 210.307 66.6078 210.766 65.0196 210.919C63.5845 211.072 62.1112 210.957 60.7144 210.556C57.5955 209.676 54.9741 207.648 53.0224 205.123C51.0707 202.617 49.7121 199.728 48.7554 196.724C47.9709 197.91 47.1098 199.039 46.1531 200.091C43.857 202.597 40.9677 204.683 37.6575 205.658C34.8064 206.5 31.6301 206.519 28.8557 205.41C27.3632 204.817 26.0238 204.032 24.78 202.999C23.5172 201.928 22.4265 200.665 21.5272 199.269C20.1495 197.126 19.2119 194.754 18.5996 192.286C18.217 192.936 17.8151 193.587 17.3559 194.199" fill="#F3633D"/>
<path d="M81.8202 197.184C81.8202 197.184 81.8008 197.126 81.7815 197.107C81.7815 197.126 81.7815 197.165 81.8202 197.184Z" fill="#F3633D"/>
<path d="M149.364 199.154C149.364 199.154 149.307 199.116 149.288 199.097C149.288 199.097 149.249 199.077 149.23 199.058C149.268 199.097 149.326 199.135 149.364 199.173" fill="#F3633D"/>
<path d="M154.339 202.138C154.339 202.138 154.224 202.081 154.167 202.062C154.224 202.1 154.282 202.119 154.339 202.138Z" fill="#F3633D"/>
<path d="M67.7366 207.323C67.7941 207.323 67.8516 207.284 67.9092 207.265C67.8516 207.265 67.7941 207.304 67.7558 207.323" fill="#F3633D"/>
<path d="M150.952 161.639C150.952 161.639 151.009 161.467 151.048 161.39C151.009 161.467 150.971 161.563 150.952 161.639Z" fill="#F3633D"/>
<path d="M103.193 162.844C103.193 162.844 103.193 162.806 103.212 162.806C103.212 162.806 103.212 162.844 103.193 162.844Z" fill="#F3633D"/>
<path d="M81.8199 165.905C81.8199 165.905 81.8199 165.867 81.8007 165.848C81.7815 165.79 81.7623 165.752 81.7432 165.694C81.7623 165.752 81.8007 165.829 81.8199 165.886" fill="#F3633D"/>
<path d="M27.2106 171.338C27.2106 171.338 27.0763 171.281 27.0188 171.261C27.0763 171.3 27.153 171.319 27.2106 171.338Z" fill="#F3633D"/>
<path d="M138.783 171.912C138.783 171.912 138.725 171.874 138.706 171.854C138.725 171.874 138.764 171.893 138.783 171.912Z" fill="#F3633D"/>
<path d="M142.475 172.065C142.475 172.065 142.475 172.065 142.456 172.065C142.514 172.046 142.571 172.027 142.629 171.988C142.591 172.008 142.533 172.027 142.475 172.046" fill="#F3633D"/>
<path d="M57.7679 173.519C57.7679 173.519 57.6912 173.481 57.6528 173.461C57.6912 173.481 57.7295 173.5 57.7679 173.519Z" fill="#F3633D"/>
<path d="M62.4556 173.997C62.4556 173.997 62.5898 173.997 62.6473 173.959C62.5898 173.959 62.5131 173.978 62.4556 173.997Z" fill="#F3633D"/>
</svg>
